<?xml version="1.0" encoding="UTF-8" standalone="no"?>
<svg width="451.556mm" height="91.7222mm"
 xmlns="http://www.w3.org/2000/svg" xmlns:xlink="http://www.w3.org/1999/xlink"  version="1.2" baseProfile="tiny">
<title>Qt SVG Document</title>
<desc>Generated with Qt</desc>
<defs>
</defs>
<g fill="none" stroke="black" stroke-width="1" fill-rule="evenodd" stroke-linecap="square" stroke-linejoin="bevel" >

<g fill="none" stroke="#000000" stroke-opacity="1" stroke-width="1" stroke-linecap="square" stroke-linejoin="bevel" transform="matrix(1,0,0,1,0,0)"
font-family="Ubuntu" font-size="11" font-weight="400" font-style="normal" 
>
</g>

<g fill="none" stroke="#000000" stroke-opacity="1" stroke-width="1" stroke-linecap="square" stroke-linejoin="bevel" transform="matrix(1,0,0,1,0,0)"
font-family="Ubuntu" font-size="11" font-weight="400" font-style="normal" 
>
</g>

<g fill="none" stroke="#000000" stroke-opacity="1" stroke-width="1" stroke-linecap="square" stroke-linejoin="bevel" transform="matrix(1.99981,0,0,1.99981,-14.9986,274.974)"
font-family="Ubuntu" font-size="11" font-weight="400" font-style="normal" 
>
</g>

<g fill="#ffffff" fill-opacity="1" stroke="none" transform="matrix(1.99981,0,0,1.99981,-14.9986,274.974)"
font-family="Ubuntu" font-size="11" font-weight="400" font-style="normal" 
>
<rect x="7.5" y="-137.5" width="640.06" height="130"/>
</g>

<g fill="none" stroke="#000000" stroke-opacity="1" stroke-width="1" stroke-linecap="square" stroke-linejoin="bevel" transform="matrix(1.99981,0,0,1.99981,-14.9986,274.974)"
font-family="Ubuntu" font-size="11" font-weight="400" font-style="normal" 
>
</g>

<g fill="none" stroke="#000000" stroke-opacity="1" stroke-width="1" stroke-linecap="square" stroke-linejoin="bevel" transform="matrix(1.99981,0,0,1.99981,-14.9986,274.974)"
font-family="Ubuntu" font-size="11" font-weight="400" font-style="normal" 
>
</g>

<g fill="none" stroke="#000000" stroke-opacity="1" stroke-width="1" stroke-linecap="square" stroke-linejoin="bevel" transform="matrix(1.99981,0,0,1.99981,-14.9986,274.974)"
font-family="Ubuntu" font-size="11" font-weight="400" font-style="normal" 
>
</g>

<g fill="none" stroke="#000000" stroke-opacity="1" stroke-width="1" stroke-linecap="square" stroke-linejoin="bevel" transform="matrix(1.99981,0,0,1.99981,-14.9986,274.974)"
font-family="Ubuntu" font-size="11" font-weight="400" font-style="normal" 
>
</g>

<g fill="none" stroke="#000000" stroke-opacity="1" stroke-width="1" stroke-linecap="square" stroke-linejoin="round" transform="matrix(1.99981,0,0,1.99981,-14.9986,274.974)"
font-family="Ubuntu" font-size="11" font-weight="400" font-style="normal" 
>
<ellipse cx="71.245" cy="-34" rx="54.7456" ry="17.5"/>
</g>

<g fill="none" stroke="#000000" stroke-opacity="1" stroke-width="1" stroke-linecap="square" stroke-linejoin="bevel" transform="matrix(1.99981,0,0,1.99981,-14.9986,274.974)"
font-family="Ubuntu" font-size="11" font-weight="400" font-style="normal" 
>
</g>

<g fill="none" stroke="#000000" stroke-opacity="1" stroke-width="1" stroke-linecap="square" stroke-linejoin="bevel" transform="matrix(1.99981,0,0,1.99981,60.828,193.982)"
font-family="Ubuntu" font-size="11" font-weight="400" font-style="normal" 
>
</g>

<g fill="none" stroke="#000000" stroke-opacity="1" stroke-width="1" stroke-linecap="square" stroke-linejoin="bevel" transform="matrix(1.99981,0,0,1.99981,60.828,193.982)"
font-family="sans" font-size="11" font-weight="100" font-style="normal" 
>
</g>

<g fill="#000000" fill-opacity="1" stroke="#000000" stroke-opacity="1" stroke-width="1" stroke-linecap="square" stroke-linejoin="round" transform="matrix(1.99981,0,0,1.99981,60.828,193.982)"
font-family="sans" font-size="11" font-weight="100" font-style="normal" 
>
<path vector-effect="none" fill-rule="nonzero" d="M2.96875,1.98438 L3.53125,1.98438 L0.734375,11.0156 L0.171875,11.0156 L2.96875,1.98438 M8.95312,5.35938 L8.95312,1.64062 L9.42188,1.64062 L9.42188,10 L8.95312,10 L8.95312,8.64062 C8.72396,9.16146 8.47396,9.51562 8.20312,9.70312 C7.80729,10.0052 7.42708,10.1562 7.0625,10.1562 C6.35417,10.1562 5.76302,9.86719 5.28906,9.28906 C4.8151,8.71094 4.57812,7.94792 4.57812,7 C4.57812,6.05208 4.8151,5.28906 5.28906,4.71094 C5.76302,4.13281 6.35417,3.84375 7.0625,3.84375 C7.42708,3.84375 7.80729,3.98958 8.20312,4.28125 C8.47396,4.47917 8.72396,4.83854 8.95312,5.35938 M5.71875,4.90625 C5.30208,5.32292 5.09375,6.02083 5.09375,7 C5.09375,7.97917 5.30208,8.67708 5.71875,9.09375 C6.13542,9.51042 6.57292,9.71875 7.03125,9.71875 C7.47917,9.71875 7.91146,9.51042 8.32812,9.09375 C8.73438,8.67708 8.9375,7.97917 8.9375,7 C8.9375,6.02083 8.73438,5.32292 8.32812,4.90625 C7.91146,4.48958 7.47917,4.28125 7.03125,4.28125 C6.57292,4.28125 6.13542,4.48958 5.71875,4.90625 M15.5,5.01562 C15.1458,4.52604 14.6615,4.28125 14.0469,4.28125 C13.4323,4.28125 12.9479,4.52604 12.5938,5.01562 C12.2396,5.49479 12.0625,6.15104 12.0625,6.98438 C12.0625,7.83854 12.2396,8.51042 12.5938,9 C12.9479,9.48958 13.4323,9.73438 14.0469,9.73438 C14.6615,9.73438 15.1458,9.48958 15.5,9 C15.8542,8.5 16.0312,7.82812 16.0312,6.98438 C16.0312,6.16146 15.8542,5.50521 15.5,5.01562 M14.0469,3.84375 C14.8073,3.84375 15.4115,4.13021 15.8594,4.70312 C16.3073,5.27604 16.5312,6.03646 16.5312,6.98438 C16.5312,7.97396 16.3073,8.75521 15.8594,9.32812 C15.4115,9.90104 14.8073,10.1875 14.0469,10.1875 C13.2656,10.1875 12.651,9.90104 12.2031,9.32812 C11.7656,8.75521 11.5469,7.97396 11.5469,6.98438 C11.5469,6.02604 11.7708,5.26302 12.2188,4.69531 C12.6667,4.1276 13.276,3.84375 14.0469,3.84375 M23.1875,6.375 L23.1875,10 L22.6875,10 L22.6875,6.40625 C22.6875,5.625 22.5625,5.07552 22.3125,4.75781 C22.0625,4.4401 21.6927,4.28125 21.2031,4.28125 C20.6302,4.28125 20.1458,4.45312 19.75,4.79688 C19.3333,5.14062 19.125,5.73958 19.125,6.59375 L19.125,10 L18.6406,10 L18.6406,3.98438 L19.125,3.98438 L19.125,5.10938 C19.3021,4.74479 19.5365,4.46875 19.8281,4.28125 C20.2448,3.98958 20.7083,3.84375 21.2188,3.84375 C21.8229,3.84375 22.3021,4.04688 22.6562,4.45312 C23.0104,4.84896 23.1875,5.48958 23.1875,6.375 M29.6094,6.92188 C29.6094,6.08854 29.4401,5.44271 29.1016,4.98438 C28.763,4.52604 28.2865,4.29688 27.6719,4.29688 C27.0677,4.29688 26.5964,4.52604 26.2578,4.98438 C25.9193,5.44271 25.75,6.08854 25.75,6.92188 C25.75,7.75521 25.9193,8.40104 26.2578,8.85938 C26.5964,9.31771 27.0677,9.54688 27.6719,9.54688 C28.2865,9.54688 28.763,9.31771 29.1016,8.85938 C29.4401,8.40104 29.6094,7.75521 29.6094,6.92188 M30.0938,9.25 C30.0938,10.5 29.8568,11.3177 29.3828,11.7031 C28.9089,12.0885 28.3073,12.2812 27.5781,12.2812 C27.224,12.2812 26.8958,12.2604 26.5938,12.2188 C26.2812,12.1562 25.9792,12.0729 25.6875,11.9688 L25.6875,11.4062 C25.9792,11.5625 26.2656,11.6797 26.5469,11.7578 C26.8281,11.8359 27.1198,11.875 27.4219,11.875 C28.0156,11.875 28.5286,11.7474 28.9609,11.4922 C29.3932,11.237 29.6094,10.5521 29.6094,9.4375 L29.6094,8.48438 C29.4531,8.90104 29.25,9.22917 29,9.46875 C28.6042,9.82292 28.1615,10 27.6719,10 C26.9115,10 26.3177,9.73177 25.8906,9.19531 C25.4635,8.65885 25.25,7.90104 25.25,6.92188 C25.25,5.94271 25.4635,5.1849 25.8906,4.64844 C26.3177,4.11198 26.9115,3.84375 27.6719,3.84375 C28.1615,3.84375 28.5781,3.99479 28.9219,4.29688 C29.1927,4.53646 29.4219,4.85938 29.6094,5.26562 L29.6094,3.98438 L30.0938,3.98438 L30.0938,9.25 M35.9219,9.09375 C36.3385,8.67708 36.5469,7.97917 36.5469,7 C36.5469,6.02083 36.3385,5.32292 35.9219,4.90625 C35.5052,4.48958 35.0677,4.28125 34.6094,4.28125 C34.1615,4.28125 33.7292,4.48958 33.3125,4.90625 C32.9062,5.32292 32.7031,6.02083 32.7031,7 C32.7031,7.97917 32.9062,8.67708 33.3125,9.09375 C33.7292,9.51042 34.1615,9.71875 34.6094,9.71875 C35.0677,9.71875 35.5052,9.51042 35.9219,9.09375 M32.6875,5.35938 C32.9167,4.83854 33.1615,4.47917 33.4219,4.28125 C33.8281,3.98958 34.2135,3.84375 34.5781,3.84375 C35.2865,3.84375 35.8776,4.13281 36.3516,4.71094 C36.8255,5.28906 37.0625,6.05208 37.0625,7 C37.0625,7.94792 36.8255,8.71094 36.3516,9.28906 C35.8776,9.86719 35.2865,10.1562 34.5781,10.1562 C34.2135,10.1562 33.8281,10.0052 33.4219,9.70312 C33.1615,9.51562 32.9167,9.16146 32.6875,8.64062 L32.6875,10 L32.2031,10 L32.2031,1.64062 L32.6875,1.64062 L32.6875,5.35938 M39.1094,7.60938 L39.1094,3.98438 L39.5938,3.98438 L39.5938,7.57812 C39.5938,8.35938 39.7188,8.90885 39.9688,9.22656 C40.2188,9.54427 40.5885,9.70312 41.0781,9.70312 C41.651,9.70312 42.1406,9.53125 42.5469,9.1875 C42.9531,8.84375 43.1562,8.24479 43.1562,7.39062 L43.1562,3.98438 L43.6406,3.98438 L43.6406,10 L43.1562,10 L43.1562,8.875 C42.9792,9.23958 42.7448,9.51562 42.4531,9.70312 C42.0365,9.99479 41.5729,10.1406 41.0625,10.1406 C40.4688,10.1406 39.9948,9.9375 39.6406,9.53125 C39.2865,9.13542 39.1094,8.49479 39.1094,7.60938 M50.5,12.1719 L50.5,12.5938 L44.7812,12.5938 L44.7812,12.1719 L50.5,12.1719 M51.6719,3.98438 L52.1719,3.98438 L52.1719,10.1094 C52.1719,10.9219 52.0469,11.4896 51.7969,11.8125 C51.5469,12.125 51.1354,12.2812 50.5625,12.2812 L50.1875,12.2812 L50.1875,11.875 L50.4531,11.875 C50.8594,11.875 51.1667,11.7812 51.375,11.5938 C51.5729,11.4167 51.6719,10.9219 51.6719,10.1094 L51.6719,3.98438 M51.6719,1.64062 L52.1719,1.64062 L52.1719,2.3125 L51.6719,2.3125 L51.6719,1.64062 M58.2656,5.01562 C57.9115,4.52604 57.4271,4.28125 56.8125,4.28125 C56.1979,4.28125 55.7135,4.52604 55.3594,5.01562 C55.0052,5.49479 54.8281,6.15104 54.8281,6.98438 C54.8281,7.83854 55.0052,8.51042 55.3594,9 C55.7135,9.48958 56.1979,9.73438 56.8125,9.73438 C57.4271,9.73438 57.9115,9.48958 58.2656,9 C58.6198,8.5 58.7969,7.82812 58.7969,6.98438 C58.7969,6.16146 58.6198,5.50521 58.2656,5.01562 M56.8125,3.84375 C57.5729,3.84375 58.1771,4.13021 58.625,4.70312 C59.0729,5.27604 59.2969,6.03646 59.2969,6.98438 C59.2969,7.97396 59.0729,8.75521 58.625,9.32812 C58.1771,9.90104 57.5729,10.1875 56.8125,10.1875 C56.0312,10.1875 55.4167,9.90104 54.9688,9.32812 C54.5312,8.75521 54.3125,7.97396 54.3125,6.98438 C54.3125,6.02604 54.5365,5.26302 54.9844,4.69531 C55.4323,4.1276 56.0417,3.84375 56.8125,3.84375 M63.4375,10.5625 C63.2188,11.0938 62.9844,11.4635 62.7344,11.6719 C62.401,11.9427 62.0781,12.0781 61.7656,12.0781 L61.0312,12.0781 L61.0312,11.6562 L61.6562,11.6562 C61.9167,11.6562 62.1458,11.5729 62.3438,11.4062 C62.5938,11.1875 62.8021,10.8698 62.9688,10.4531 L63.1406,10 L60.75,3.98438 L61.2812,3.98438 L63.4062,9.34375 L65.5469,3.98438 L66.0781,3.98438 L63.4375,10.5625"/>
</g>

<g fill="none" stroke="#000000" stroke-opacity="1" stroke-width="1" stroke-linecap="square" stroke-linejoin="bevel" transform="matrix(1.99981,0,0,1.99981,60.828,193.982)"
font-family="sans" font-size="11" font-weight="100" font-style="normal" 
>
</g>

<g fill="none" stroke="#000000" stroke-opacity="1" stroke-width="1" stroke-linecap="square" stroke-linejoin="bevel" transform="matrix(1.99981,0,0,1.99981,60.828,193.982)"
font-family="Ubuntu" font-size="11" font-weight="400" font-style="normal" 
>
</g>

<g fill="none" stroke="#000000" stroke-opacity="1" stroke-width="1" stroke-linecap="square" stroke-linejoin="bevel" transform="matrix(1.99981,0,0,1.99981,-14.9986,274.974)"
font-family="Ubuntu" font-size="11" font-weight="400" font-style="normal" 
>
</g>

<g fill="none" stroke="#000000" stroke-opacity="1" stroke-width="1" stroke-linecap="square" stroke-linejoin="bevel" transform="matrix(1.99981,0,0,1.99981,-14.9986,274.974)"
font-family="Ubuntu" font-size="11" font-weight="400" font-style="normal" 
>
</g>

<g fill="none" stroke="#000000" stroke-opacity="1" stroke-width="1" stroke-linecap="square" stroke-linejoin="bevel" transform="matrix(1.99981,0,0,1.99981,-14.9986,274.974)"
font-family="Ubuntu" font-size="11" font-weight="400" font-style="normal" 
>
</g>

<g fill="none" stroke="#000000" stroke-opacity="1" stroke-width="1" stroke-linecap="square" stroke-linejoin="round" transform="matrix(1.99981,0,0,1.99981,-14.9986,274.974)"
font-family="Ubuntu" font-size="11" font-weight="400" font-style="normal" 
>
<ellipse cx="214.94" cy="-34" rx="33.947" ry="17.5"/>
</g>

<g fill="none" stroke="#000000" stroke-opacity="1" stroke-width="1" stroke-linecap="square" stroke-linejoin="bevel" transform="matrix(1.99981,0,0,1.99981,-14.9986,274.974)"
font-family="Ubuntu" font-size="11" font-weight="400" font-style="normal" 
>
</g>

<g fill="none" stroke="#000000" stroke-opacity="1" stroke-width="1" stroke-linecap="square" stroke-linejoin="bevel" transform="matrix(1.99981,0,0,1.99981,376.563,193.982)"
font-family="Ubuntu" font-size="11" font-weight="400" font-style="normal" 
>
</g>

<g fill="none" stroke="#000000" stroke-opacity="1" stroke-width="1" stroke-linecap="square" stroke-linejoin="bevel" transform="matrix(1.99981,0,0,1.99981,376.563,193.982)"
font-family="sans" font-size="11" font-weight="100" font-style="normal" 
>
</g>

<g fill="#000000" fill-opacity="1" stroke="#000000" stroke-opacity="1" stroke-width="1" stroke-linecap="square" stroke-linejoin="round" transform="matrix(1.99981,0,0,1.99981,376.563,193.982)"
font-family="sans" font-size="11" font-weight="100" font-style="normal" 
>
<path vector-effect="none" fill-rule="nonzero" d="M2.96875,1.98438 L3.53125,1.98438 L0.734375,11.0156 L0.171875,11.0156 L2.96875,1.98438 M5.46875,2.28125 L5.46875,3.98438 L7.5,3.98438 L7.5,4.40625 L5.46875,4.40625 L5.46875,8.01562 C5.46875,8.47396 5.52604,8.79688 5.64062,8.98438 C5.89062,9.38021 6.25,9.57812 6.71875,9.57812 L7.5,9.57812 L7.5,10 L6.73438,10 C6.24479,10 5.82812,9.85677 5.48438,9.57031 C5.14062,9.28385 4.96875,8.76562 4.96875,8.01562 L4.96875,4.40625 L4.25,4.40625 L4.25,3.98438 L4.96875,3.98438 L4.96875,2.28125 L5.46875,2.28125 M13.9531,6.75 L13.9531,7.0625 L9.39062,7.0625 C9.39062,8.02083 9.57812,8.69792 9.95312,9.09375 C10.3698,9.52083 10.9844,9.73438 11.7969,9.73438 C12.0156,9.73438 12.3021,9.6875 12.6562,9.59375 C13.0104,9.5 13.3646,9.35938 13.7188,9.17188 L13.7188,9.6875 C13.3646,9.84375 13.0026,9.96094 12.6328,10.0391 C12.263,10.1172 11.9688,10.1562 11.75,10.1562 C10.8229,10.1562 10.125,9.90625 9.65625,9.40625 C9.14583,8.875 8.89062,8.09375 8.89062,7.0625 C8.89062,5.98958 9.11979,5.1875 9.57812,4.65625 C10.0573,4.11458 10.724,3.84375 11.5781,3.84375 C12.3594,3.84375 12.9531,4.10417 13.3594,4.625 C13.7552,5.16667 13.9531,5.875 13.9531,6.75 M13.4531,6.64062 C13.4531,5.79688 13.2604,5.18229 12.875,4.79688 C12.5625,4.45312 12.1302,4.28125 11.5781,4.28125 C10.9844,4.28125 10.4844,4.45833 10.0781,4.8125 C9.70312,5.14583 9.47917,5.75521 9.40625,6.64062 L13.4531,6.64062 M16.0312,1.64062 L16.5156,1.64062 L16.5156,10 L16.0312,10 L16.0312,1.64062 M23.7656,6.75 L23.7656,7.0625 L19.2031,7.0625 C19.2031,8.02083 19.3906,8.69792 19.7656,9.09375 C20.1823,9.52083 20.7969,9.73438 21.6094,9.73438 C21.8281,9.73438 22.1146,9.6875 22.4688,9.59375 C22.8229,9.5 23.1771,9.35938 23.5312,9.17188 L23.5312,9.6875 C23.1771,9.84375 22.8151,9.96094 22.4453,10.0391 C22.0755,10.1172 21.7812,10.1562 21.5625,10.1562 C20.6354,10.1562 19.9375,9.90625 19.4688,9.40625 C18.9583,8.875 18.7031,8.09375 18.7031,7.0625 C18.7031,5.98958 18.9323,5.1875 19.3906,4.65625 C19.8698,4.11458 20.5365,3.84375 21.3906,3.84375 C22.1719,3.84375 22.7656,4.10417 23.1719,4.625 C23.5677,5.16667 23.7656,5.875 23.7656,6.75 M23.2656,6.64062 C23.2656,5.79688 23.0729,5.18229 22.6875,4.79688 C22.375,4.45312 21.9427,4.28125 21.3906,4.28125 C20.7969,4.28125 20.2969,4.45833 19.8906,4.8125 C19.5156,5.14583 19.2917,5.75521 19.2188,6.64062 L23.2656,6.64062 M29.4219,5.01562 C29.0677,4.52604 28.5833,4.28125 27.9688,4.28125 C27.3542,4.28125 26.8698,4.52604 26.5156,5.01562 C26.1615,5.49479 25.9844,6.15104 25.9844,6.98438 C25.9844,7.83854 26.1615,8.51042 26.5156,9 C26.8698,9.48958 27.3542,9.73438 27.9688,9.73438 C28.5833,9.73438 29.0677,9.48958 29.4219,9 C29.776,8.5 29.9531,7.82812 29.9531,6.98438 C29.9531,6.16146 29.776,5.50521 29.4219,5.01562 M27.9688,3.84375 C28.7292,3.84375 29.3333,4.13021 29.7812,4.70312 C30.2292,5.27604 30.4531,6.03646 30.4531,6.98438 C30.4531,7.97396 30.2292,8.75521 29.7812,9.32812 C29.3333,9.90104 28.7292,10.1875 27.9688,10.1875 C27.1875,10.1875 26.5729,9.90104 26.125,9.32812 C25.6875,8.75521 25.4688,7.97396 25.4688,6.98438 C25.4688,6.02604 25.6927,5.26302 26.1406,4.69531 C26.5885,4.1276 27.1979,3.84375 27.9688,3.84375 M33.0469,8.64062 L33.0469,12.2812 L32.5625,12.2812 L32.5625,3.98438 L33.0469,3.98438 L33.0469,5.35938 C33.276,4.83854 33.5208,4.47917 33.7812,4.28125 C34.1875,3.98958 34.5729,3.84375 34.9375,3.84375 C35.6458,3.84375 36.237,4.13281 36.7109,4.71094 C37.1849,5.28906 37.4219,6.05208 37.4219,7 C37.4219,7.94792 37.1849,8.71094 36.7109,9.28906 C36.237,9.86719 35.6458,10.1562 34.9375,10.1562 C34.5729,10.1562 34.1875,10.0052 33.7812,9.70312 C33.5208,9.51562 33.276,9.16146 33.0469,8.64062 M36.2812,9.09375 C36.6979,8.67708 36.9062,7.97917 36.9062,7 C36.9062,6.02083 36.6979,5.32292 36.2812,4.90625 C35.8646,4.48958 35.4271,4.28125 34.9688,4.28125 C34.5208,4.28125 34.0885,4.48958 33.6719,4.90625 C33.2656,5.32292 33.0625,6.02083 33.0625,7 C33.0625,7.97917 33.2656,8.67708 33.6719,9.09375 C34.0885,9.51042 34.5208,9.71875 34.9688,9.71875 C35.4271,9.71875 35.8646,9.51042 36.2812,9.09375 "/>
</g>

<g fill="none" stroke="#000000" stroke-opacity="1" stroke-width="1" stroke-linecap="square" stroke-linejoin="bevel" transform="matrix(1.99981,0,0,1.99981,376.563,193.982)"
font-family="sans" font-size="11" font-weight="100" font-style="normal" 
>
</g>

<g fill="none" stroke="#000000" stroke-opacity="1" stroke-width="1" stroke-linecap="square" stroke-linejoin="bevel" transform="matrix(1.99981,0,0,1.99981,376.563,193.982)"
font-family="Ubuntu" font-size="11" font-weight="400" font-style="normal" 
>
</g>

<g fill="none" stroke="#000000" stroke-opacity="1" stroke-width="1" stroke-linecap="square" stroke-linejoin="bevel" transform="matrix(1.99981,0,0,1.99981,-14.9986,274.974)"
font-family="Ubuntu" font-size="11" font-weight="400" font-style="normal" 
>
</g>

<g fill="none" stroke="#000000" stroke-opacity="1" stroke-width="1" stroke-linecap="square" stroke-linejoin="bevel" transform="matrix(1.99981,0,0,1.99981,-14.9986,274.974)"
font-family="Ubuntu" font-size="11" font-weight="400" font-style="normal" 
>
</g>

<g fill="none" stroke="#000000" stroke-opacity="1" stroke-width="1" stroke-linecap="square" stroke-linejoin="bevel" transform="matrix(1.99981,0,0,1.99981,-14.9986,274.974)"
font-family="Ubuntu" font-size="11" font-weight="400" font-style="normal" 
>
</g>

<g fill="none" stroke="#000000" stroke-opacity="1" stroke-width="1" stroke-linecap="square" stroke-linejoin="round" transform="matrix(1.99981,0,0,1.99981,-14.9986,274.974)"
font-family="Ubuntu" font-size="11" font-weight="400" font-style="normal" 
>
<ellipse cx="214.94" cy="-88" rx="28.0973" ry="17.5"/>
</g>

<g fill="none" stroke="#000000" stroke-opacity="1" stroke-width="1" stroke-linecap="square" stroke-linejoin="bevel" transform="matrix(1.99981,0,0,1.99981,-14.9986,274.974)"
font-family="Ubuntu" font-size="11" font-weight="400" font-style="normal" 
>
</g>

<g fill="none" stroke="#000000" stroke-opacity="1" stroke-width="1" stroke-linecap="square" stroke-linejoin="bevel" transform="matrix(1.99981,0,0,1.99981,387.797,85.9919)"
font-family="Ubuntu" font-size="11" font-weight="400" font-style="normal" 
>
</g>

<g fill="none" stroke="#000000" stroke-opacity="1" stroke-width="1" stroke-linecap="square" stroke-linejoin="bevel" transform="matrix(1.99981,0,0,1.99981,387.797,85.9919)"
font-family="sans" font-size="11" font-weight="100" font-style="normal" 
>
</g>

<g fill="#000000" fill-opacity="1" stroke="#000000" stroke-opacity="1" stroke-width="1" stroke-linecap="square" stroke-linejoin="round" transform="matrix(1.99981,0,0,1.99981,387.797,85.9919)"
font-family="sans" font-size="11" font-weight="100" font-style="normal" 
>
<path vector-effect="none" fill-rule="nonzero" d="M5.35938,4.28125 L5.35938,4.79688 C5.06771,4.61979 4.82292,4.5 4.625,4.4375 C4.29167,4.33333 3.97396,4.28125 3.67188,4.28125 C2.80729,4.28125 2.1875,4.5026 1.8125,4.94531 C1.4375,5.38802 1.25,6.07292 1.25,7 C1.25,7.9375 1.4375,8.6276 1.8125,9.07031 C2.1875,9.51302 2.80729,9.73438 3.67188,9.73438 C3.96354,9.73438 4.24479,9.69271 4.51562,9.60938 C4.80729,9.53646 5.08854,9.42188 5.35938,9.26562 L5.35938,9.76562 C5.08854,9.90104 4.80729,10 4.51562,10.0625 C4.21354,10.125 3.91667,10.1562 3.625,10.1562 C2.75,10.1562 2.05208,9.91667 1.53125,9.4375 C1.01042,8.95833 0.75,8.14323 0.75,6.99219 C0.75,5.84115 1.01042,5.02604 1.53125,4.54688 C2.05208,4.07812 2.75,3.84375 3.625,3.84375 C3.91667,3.84375 4.22396,3.88542 4.54688,3.96875 C4.86979,4.04167 5.14062,4.14583 5.35938,4.28125 M10.875,5.01562 C10.5208,4.52604 10.0365,4.28125 9.42188,4.28125 C8.80729,4.28125 8.32292,4.52604 7.96875,5.01562 C7.61458,5.49479 7.4375,6.15104 7.4375,6.98438 C7.4375,7.83854 7.61458,8.51042 7.96875,9 C8.32292,9.48958 8.80729,9.73438 9.42188,9.73438 C10.0365,9.73438 10.5208,9.48958 10.875,9 C11.2292,8.5 11.4062,7.82812 11.4062,6.98438 C11.4062,6.16146 11.2292,5.50521 10.875,5.01562 M9.42188,3.84375 C10.1823,3.84375 10.7865,4.13021 11.2344,4.70312 C11.6823,5.27604 11.9062,6.03646 11.9062,6.98438 C11.9062,7.97396 11.6823,8.75521 11.2344,9.32812 C10.7865,9.90104 10.1823,10.1875 9.42188,10.1875 C8.64062,10.1875 8.02604,9.90104 7.57812,9.32812 C7.14062,8.75521 6.92188,7.97396 6.92188,6.98438 C6.92188,6.02604 7.14583,5.26302 7.59375,4.69531 C8.04167,4.1276 8.65104,3.84375 9.42188,3.84375 M14.0156,1.64062 L14.5,1.64062 L14.5,10 L14.0156,10 L14.0156,1.64062 M20.6406,5.01562 C20.2865,4.52604 19.8021,4.28125 19.1875,4.28125 C18.5729,4.28125 18.0885,4.52604 17.7344,5.01562 C17.3802,5.49479 17.2031,6.15104 17.2031,6.98438 C17.2031,7.83854 17.3802,8.51042 17.7344,9 C18.0885,9.48958 18.5729,9.73438 19.1875,9.73438 C19.8021,9.73438 20.2865,9.48958 20.6406,9 C20.9948,8.5 21.1719,7.82812 21.1719,6.98438 C21.1719,6.16146 20.9948,5.50521 20.6406,5.01562 M19.1875,3.84375 C19.9479,3.84375 20.5521,4.13021 21,4.70312 C21.4479,5.27604 21.6719,6.03646 21.6719,6.98438 C21.6719,7.97396 21.4479,8.75521 21,9.32812 C20.5521,9.90104 19.9479,10.1875 19.1875,10.1875 C18.4062,10.1875 17.7917,9.90104 17.3438,9.32812 C16.9062,8.75521 16.6875,7.97396 16.6875,6.98438 C16.6875,6.02604 16.9115,5.26302 17.3594,4.69531 C17.8073,4.1276 18.4167,3.84375 19.1875,3.84375 M27.0469,4.40625 C26.9635,4.36458 26.8542,4.33333 26.7188,4.3125 C26.5938,4.29167 26.4427,4.28125 26.2656,4.28125 C25.651,4.28125 25.1458,4.50521 24.75,4.95312 C24.4271,5.31771 24.2656,5.94271 24.2656,6.82812 L24.2656,10 L23.7812,10 L23.7812,3.98438 L24.2656,3.98438 L24.2656,5.10938 C24.4323,4.78646 24.6615,4.51562 24.9531,4.29688 C25.349,3.99479 25.8177,3.84375 26.3594,3.84375 C26.5052,3.84375 26.6302,3.84896 26.7344,3.85938 C26.8385,3.85938 26.9427,3.86979 27.0469,3.89062 L27.0469,4.40625"/>
</g>

<g fill="none" stroke="#000000" stroke-opacity="1" stroke-width="1" stroke-linecap="square" stroke-linejoin="bevel" transform="matrix(1.99981,0,0,1.99981,387.797,85.9919)"
font-family="sans" font-size="11" font-weight="100" font-style="normal" 
>
</g>

<g fill="none" stroke="#000000" stroke-opacity="1" stroke-width="1" stroke-linecap="square" stroke-linejoin="bevel" transform="matrix(1.99981,0,0,1.99981,387.797,85.9919)"
font-family="Ubuntu" font-size="11" font-weight="400" font-style="normal" 
>
</g>

<g fill="none" stroke="#000000" stroke-opacity="1" stroke-width="1" stroke-linecap="square" stroke-linejoin="bevel" transform="matrix(1.99981,0,0,1.99981,-14.9986,274.974)"
font-family="Ubuntu" font-size="11" font-weight="400" font-style="normal" 
>
</g>

<g fill="none" stroke="#000000" stroke-opacity="1" stroke-width="1" stroke-linecap="square" stroke-linejoin="bevel" transform="matrix(1.99981,0,0,1.99981,-14.9986,274.974)"
font-family="Ubuntu" font-size="11" font-weight="400" font-style="normal" 
>
</g>

<g fill="none" stroke="#000000" stroke-opacity="1" stroke-width="1" stroke-linecap="square" stroke-linejoin="bevel" transform="matrix(1.99981,0,0,1.99981,-14.9986,274.974)"
font-family="Ubuntu" font-size="11" font-weight="400" font-style="normal" 
>
</g>

<g fill="none" stroke="#000000" stroke-opacity="1" stroke-width="1" stroke-linecap="square" stroke-linejoin="round" transform="matrix(1.99981,0,0,1.99981,-14.9986,274.974)"
font-family="Ubuntu" font-size="11" font-weight="400" font-style="normal" 
>
<ellipse cx="509.72" cy="-34" rx="128.837" ry="17.5"/>
</g>

<g fill="none" stroke="#000000" stroke-opacity="1" stroke-width="1" stroke-linecap="square" stroke-linejoin="bevel" transform="matrix(1.99981,0,0,1.99981,-14.9986,274.974)"
font-family="Ubuntu" font-size="11" font-weight="400" font-style="normal" 
>
</g>

<g fill="none" stroke="#000000" stroke-opacity="1" stroke-width="1" stroke-linecap="square" stroke-linejoin="bevel" transform="matrix(1.99981,0,0,1.99981,819.894,193.982)"
font-family="Ubuntu" font-size="11" font-weight="400" font-style="normal" 
>
</g>

<g fill="none" stroke="#000000" stroke-opacity="1" stroke-width="1" stroke-linecap="square" stroke-linejoin="bevel" transform="matrix(1.99981,0,0,1.99981,819.894,193.982)"
font-family="sans" font-size="11" font-weight="100" font-style="normal" 
>
</g>

<g fill="#000000" fill-opacity="1" stroke="#000000" stroke-opacity="1" stroke-width="1" stroke-linecap="square" stroke-linejoin="round" transform="matrix(1.99981,0,0,1.99981,819.894,193.982)"
font-family="sans" font-size="11" font-weight="100" font-style="normal" 
>
<path vector-effect="none" fill-rule="nonzero" d="M2.96875,1.98438 L3.53125,1.98438 L0.734375,11.0156 L0.171875,11.0156 L2.96875,1.98438 M8.21875,4.40625 C8.13542,4.36458 8.02604,4.33333 7.89062,4.3125 C7.76562,4.29167 7.61458,4.28125 7.4375,4.28125 C6.82292,4.28125 6.31771,4.50521 5.92188,4.95312 C5.59896,5.31771 5.4375,5.94271 5.4375,6.82812 L5.4375,10 L4.95312,10 L4.95312,3.98438 L5.4375,3.98438 L5.4375,5.10938 C5.60417,4.78646 5.83333,4.51562 6.125,4.29688 C6.52083,3.99479 6.98958,3.84375 7.53125,3.84375 C7.67708,3.84375 7.80208,3.84896 7.90625,3.85938 C8.01042,3.85938 8.11458,3.86979 8.21875,3.89062 L8.21875,4.40625 M13.0469,5.01562 C12.6927,4.52604 12.2083,4.28125 11.5938,4.28125 C10.9792,4.28125 10.4948,4.52604 10.1406,5.01562 C9.78646,5.49479 9.60938,6.15104 9.60938,6.98438 C9.60938,7.83854 9.78646,8.51042 10.1406,9 C10.4948,9.48958 10.9792,9.73438 11.5938,9.73438 C12.2083,9.73438 12.6927,9.48958 13.0469,9 C13.401,8.5 13.5781,7.82812 13.5781,6.98438 C13.5781,6.16146 13.401,5.50521 13.0469,5.01562 M11.5938,3.84375 C12.3542,3.84375 12.9583,4.13021 13.4062,4.70312 C13.8542,5.27604 14.0781,6.03646 14.0781,6.98438 C14.0781,7.97396 13.8542,8.75521 13.4062,9.32812 C12.9583,9.90104 12.3542,10.1875 11.5938,10.1875 C10.8125,10.1875 10.1979,9.90104 9.75,9.32812 C9.3125,8.75521 9.09375,7.97396 9.09375,6.98438 C9.09375,6.02604 9.31771,5.26302 9.76562,4.69531 C10.2135,4.1276 10.8229,3.84375 11.5938,3.84375 M19.5938,4.15625 L19.5938,4.70312 C19.2396,4.50521 19.0208,4.39583 18.9375,4.375 C18.6875,4.32292 18.375,4.29167 18,4.28125 C17.4375,4.28125 16.9948,4.39062 16.6719,4.60938 C16.4219,4.79688 16.2969,5.11458 16.2969,5.5625 C16.2969,5.875 16.4167,6.11458 16.6562,6.28125 C16.8958,6.46875 17.2448,6.61458 17.7031,6.71875 L18.0469,6.78125 C18.6198,6.90625 19.0521,7.08333 19.3438,7.3125 C19.6875,7.58333 19.8646,7.92708 19.875,8.34375 C19.875,8.90625 19.7083,9.34896 19.375,9.67188 C19.0208,9.99479 18.4427,10.1562 17.6406,10.1562 C17.2031,10.1562 16.8698,10.125 16.6406,10.0625 C16.3594,9.98958 16.0677,9.89583 15.7656,9.78125 L15.7656,9.15625 C16.2031,9.40625 16.4844,9.55208 16.6094,9.59375 C16.9635,9.6875 17.3177,9.73438 17.6719,9.73438 C18.2448,9.73438 18.6719,9.61458 18.9531,9.375 C19.2344,9.125 19.375,8.80729 19.375,8.42188 C19.375,8.08854 19.2812,7.84896 19.0938,7.70312 C18.8229,7.48438 18.3958,7.30729 17.8125,7.17188 L17.4688,7.09375 C16.9583,6.96875 16.5729,6.80208 16.3125,6.59375 C15.9792,6.32292 15.8125,5.99479 15.8125,5.60938 C15.8125,4.98438 16.013,4.53385 16.4141,4.25781 C16.8151,3.98177 17.3073,3.84375 17.8906,3.84375 C18.3906,3.84375 18.7344,3.86979 18.9219,3.92188 C19.151,3.98438 19.375,4.0625 19.5938,4.15625 M22.4219,2.28125 L22.4219,3.98438 L24.4531,3.98438 L24.4531,4.40625 L22.4219,4.40625 L22.4219,8.01562 C22.4219,8.47396 22.4792,8.79688 22.5938,8.98438 C22.8438,9.38021 23.2031,9.57812 23.6719,9.57812 L24.4531,9.57812 L24.4531,10 L23.6875,10 C23.1979,10 22.7812,9.85677 22.4375,9.57031 C22.0938,9.28385 21.9219,8.76562 21.9219,8.01562 L21.9219,4.40625 L21.2031,4.40625 L21.2031,3.98438 L21.9219,3.98438 L21.9219,2.28125 L22.4219,2.28125 M29.7969,5.01562 C29.4427,4.52604 28.9583,4.28125 28.3438,4.28125 C27.7292,4.28125 27.2448,4.52604 26.8906,5.01562 C26.5365,5.49479 26.3594,6.15104 26.3594,6.98438 C26.3594,7.83854 26.5365,8.51042 26.8906,9 C27.2448,9.48958 27.7292,9.73438 28.3438,9.73438 C28.9583,9.73438 29.4427,9.48958 29.7969,9 C30.151,8.5 30.3281,7.82812 30.3281,6.98438 C30.3281,6.16146 30.151,5.50521 29.7969,5.01562 M28.3438,3.84375 C29.1042,3.84375 29.7083,4.13021 30.1562,4.70312 C30.6042,5.27604 30.8281,6.03646 30.8281,6.98438 C30.8281,7.97396 30.6042,8.75521 30.1562,9.32812 C29.7083,9.90104 29.1042,10.1875 28.3438,10.1875 C27.5625,10.1875 26.9479,9.90104 26.5,9.32812 C26.0625,8.75521 25.8438,7.97396 25.8438,6.98438 C25.8438,6.02604 26.0677,5.26302 26.5156,4.69531 C26.9635,4.1276 27.5729,3.84375 28.3438,3.84375 M33.4219,8.64062 L33.4219,12.2812 L32.9375,12.2812 L32.9375,3.98438 L33.4219,3.98438 L33.4219,5.35938 C33.651,4.83854 33.8958,4.47917 34.1562,4.28125 C34.5625,3.98958 34.9479,3.84375 35.3125,3.84375 C36.0208,3.84375 36.612,4.13281 37.0859,4.71094 C37.5599,5.28906 37.7969,6.05208 37.7969,7 C37.7969,7.94792 37.5599,8.71094 37.0859,9.28906 C36.612,9.86719 36.0208,10.1562 35.3125,10.1562 C34.9479,10.1562 34.5625,10.0052 34.1562,9.70312 C33.8958,9.51562 33.651,9.16146 33.4219,8.64062 M36.6562,9.09375 C37.0729,8.67708 37.2812,7.97917 37.2812,7 C37.2812,6.02083 37.0729,5.32292 36.6562,4.90625 C36.2396,4.48958 35.8021,4.28125 35.3438,4.28125 C34.8958,4.28125 34.4635,4.48958 34.0469,4.90625 C33.6406,5.32292 33.4375,6.02083 33.4375,7 C33.4375,7.97917 33.6406,8.67708 34.0469,9.09375 C34.4635,9.51042 34.8958,9.71875 35.3438,9.71875 C35.8021,9.71875 36.2396,9.51042 36.6562,9.09375 M39.8906,3.98438 L40.3906,3.98438 L40.3906,10 L39.8906,10 L39.8906,3.98438 M39.8906,1.64062 L40.3906,1.64062 L40.3906,2.3125 L39.8906,2.3125 L39.8906,1.64062 M47.0625,4.28125 L47.0625,4.79688 C46.7708,4.61979 46.526,4.5 46.3281,4.4375 C45.9948,4.33333 45.6771,4.28125 45.375,4.28125 C44.5104,4.28125 43.8906,4.5026 43.5156,4.94531 C43.1406,5.38802 42.9531,6.07292 42.9531,7 C42.9531,7.9375 43.1406,8.6276 43.5156,9.07031 C43.8906,9.51302 44.5104,9.73438 45.375,9.73438 C45.6667,9.73438 45.9479,9.69271 46.2188,9.60938 C46.5104,9.53646 46.7917,9.42188 47.0625,9.26562 L47.0625,9.76562 C46.7917,9.90104 46.5104,10 46.2188,10.0625 C45.9167,10.125 45.6198,10.1562 45.3281,10.1562 C44.4531,10.1562 43.7552,9.91667 43.2344,9.4375 C42.7135,8.95833 42.4531,8.14323 42.4531,6.99219 C42.4531,5.84115 42.7135,5.02604 43.2344,4.54688 C43.7552,4.07812 44.4531,3.84375 45.3281,3.84375 C45.6198,3.84375 45.9271,3.88542 46.25,3.96875 C46.5729,4.04167 46.8438,4.14583 47.0625,4.28125 M53.3594,12.1719 L53.3594,12.5938 L47.6406,12.5938 L47.6406,12.1719 L53.3594,12.1719 M54.5781,9.5625 L59.1406,9.5625 L59.1406,10 L54.0156,10 L54.0156,9.4375 L56.0156,7.35938 C56.5052,6.85938 56.9531,6.39583 57.3594,5.96875 C57.724,5.57292 57.9688,5.26562 58.0938,5.04688 C58.2188,4.82812 58.2812,4.53646 58.2812,4.17188 C58.2812,3.55729 58.0938,3.0625 57.7188,2.6875 C57.4479,2.41667 57.0052,2.28125 56.3906,2.28125 C56.026,2.28125 55.6146,2.38542 55.1562,2.59375 C54.9479,2.6875 54.599,2.89062 54.1094,3.20312 L54.1094,2.64062 C54.3177,2.49479 54.6198,2.32812 55.0156,2.14062 C55.474,1.94271 55.9271,1.83854 56.375,1.82812 C57.0625,1.82812 57.6406,2.01042 58.1094,2.375 C58.5677,2.72917 58.7969,3.3125 58.7969,4.125 C58.7969,4.45833 58.7344,4.77083 58.6094,5.0625 C58.4635,5.40625 58.2396,5.75521 57.9375,6.10938 C57.8438,6.21354 57.5573,6.51042 57.0781,7 L54.5781,9.5625 M61.875,9.5625 L63.6406,9.5625 L63.6406,2.46875 L61.4375,3.35938 L61.4375,2.85938 L63.625,1.98438 L64.1719,1.98438 L64.1719,9.5625 L65.9531,9.5625 L65.9531,10 L61.875,10 L61.875,9.5625 M71.6406,2.28125 L68.3125,7.4375 L71.6406,7.4375 L71.6406,2.28125 M71.2188,1.98438 L72.1875,1.98438 L72.1875,7.4375 L73.3438,7.4375 L73.3438,7.875 L72.1875,7.875 L72.1875,10 L71.6406,10 L71.6406,7.875 L67.75,7.875 L67.75,7.3125 L71.2188,1.98438 M75.5312,9.5625 L80.0938,9.5625 L80.0938,10 L74.9688,10 L74.9688,9.4375 L76.9688,7.35938 C77.4583,6.85938 77.9062,6.39583 78.3125,5.96875 C78.6771,5.57292 78.9219,5.26562 79.0469,5.04688 C79.1719,4.82812 79.2344,4.53646 79.2344,4.17188 C79.2344,3.55729 79.0469,3.0625 78.6719,2.6875 C78.401,2.41667 77.9583,2.28125 77.3438,2.28125 C76.9792,2.28125 76.5677,2.38542 76.1094,2.59375 C75.901,2.6875 75.5521,2.89062 75.0625,3.20312 L75.0625,2.64062 C75.2708,2.49479 75.5729,2.32812 75.9688,2.14062 C76.4271,1.94271 76.8802,1.83854 77.3281,1.82812 C78.0156,1.82812 78.5938,2.01042 79.0625,2.375 C79.5208,2.72917 79.75,3.3125 79.75,4.125 C79.75,4.45833 79.6875,4.77083 79.5625,5.0625 C79.4167,5.40625 79.1927,5.75521 78.8906,6.10938 C78.7969,6.21354 78.5104,6.51042 78.0312,7 L75.5312,9.5625 M86.1719,5.92969 C85.8385,5.53906 85.388,5.34375 84.8203,5.34375 C84.2526,5.34375 83.8021,5.53906 83.4688,5.92969 C83.1354,6.32031 82.9688,6.85417 82.9688,7.53125 C82.9688,8.20833 83.1354,8.74219 83.4688,9.13281 C83.8021,9.52344 84.2526,9.71875 84.8203,9.71875 C85.388,9.71875 85.8385,9.52344 86.1719,9.13281 C86.5052,8.74219 86.6719,8.20833 86.6719,7.53125 C86.6719,6.85417 86.5052,6.32031 86.1719,5.92969 M86.8281,2.15625 L86.8281,2.73438 C86.5781,2.57812 86.3229,2.46354 86.0625,2.39062 C85.8125,2.30729 85.5625,2.26562 85.3125,2.26562 C84.25,2.26562 83.5052,2.79167 83.0781,3.84375 C82.8802,4.3125 82.7917,5.11979 82.8125,6.26562 C82.9896,5.86979 83.2188,5.5625 83.5,5.34375 C83.8646,5.05208 84.3281,4.90625 84.8906,4.90625 C85.5573,4.90625 86.1146,5.14062 86.5625,5.60938 C87.0104,6.08854 87.2344,6.69271 87.2344,7.42188 C87.2344,8.24479 87.0156,8.90625 86.5781,9.40625 C86.1406,9.90625 85.5677,10.1562 84.8594,10.1562 C84.0156,10.1562 83.3698,9.80208 82.9219,9.09375 C82.474,8.375 82.25,7.34375 82.25,6 C82.25,4.5625 82.526,3.50521 83.0781,2.82812 C83.6198,2.16146 84.3542,1.82812 85.2812,1.82812 C85.5312,1.82812 85.7812,1.85938 86.0312,1.92188 C86.2812,1.97396 86.5469,2.05208 86.8281,2.15625 M93.7812,12.1719 L93.7812,12.5938 L88.0625,12.5938 L88.0625,12.1719 L93.7812,12.1719 M95.3125,9.5625 L97.0781,9.5625 L97.0781,2.46875 L94.875,3.35938 L94.875,2.85938 L97.0625,1.98438 L97.6094,1.98438 L97.6094,9.5625 L99.3906,9.5625 L99.3906,10 L95.3125,10 L95.3125,9.5625 M102.062,1.98438 L105.859,1.98438 L105.859,2.42188 L102.594,2.42188 L102.594,5.10938 C102.76,5.04688 102.922,5 103.078,4.96875 C103.234,4.9375 103.464,4.92188 103.766,4.92188 C104.589,4.92188 105.24,5.15104 105.719,5.60938 C106.198,6.05729 106.438,6.66146 106.438,7.42188 C106.438,8.28646 106.188,8.95833 105.688,9.4375 C105.198,9.91667 104.505,10.1562 103.609,10.1562 C103.318,10.1562 103.016,10.1302 102.703,10.0781 C102.391,10.026 102.068,9.95312 101.734,9.85938 L101.734,9.3125 C102.016,9.4375 102.307,9.53646 102.609,9.60938 C102.911,9.67188 103.229,9.70312 103.562,9.70312 C104.271,9.70312 104.839,9.5 105.266,9.09375 C105.693,8.6875 105.906,8.13021 105.906,7.42188 C105.906,6.78646 105.698,6.28646 105.281,5.92188 C104.865,5.54688 104.302,5.35938 103.594,5.35938 C103.448,5.35938 103.229,5.40104 102.938,5.48438 C102.656,5.55729 102.365,5.67708 102.062,5.84375 L102.062,1.98438 M109.281,9.5625 L111.047,9.5625 L111.047,2.46875 L108.844,3.35938 L108.844,2.85938 L111.031,1.98438 L111.578,1.98438 L111.578,9.5625 L113.359,9.5625 L113.359,10 L109.281,10 L109.281,9.5625 M118.094,2.28125 C117.438,2.28125 116.948,2.59896 116.625,3.23438 C116.312,3.86979 116.156,4.78906 116.156,5.99219 C116.156,7.19531 116.312,8.11979 116.625,8.76562 C116.948,9.40104 117.438,9.71875 118.094,9.71875 C118.771,9.71875 119.266,9.40104 119.578,8.76562 C119.901,8.11979 120.062,7.19531 120.062,5.99219 C120.062,4.78906 119.901,3.86979 119.578,3.23438 C119.266,2.59896 118.771,2.28125 118.094,2.28125 M118.094,1.82812 C118.865,1.82812 119.474,2.14583 119.922,2.78125 C120.38,3.41667 120.609,4.48958 120.609,6 C120.609,7.51042 120.38,8.58333 119.922,9.21875 C119.474,9.84375 118.865,10.1562 118.094,10.1562 C117.344,10.1562 116.74,9.84375 116.281,9.21875 C115.833,8.58333 115.609,7.51042 115.609,6 C115.609,4.48958 115.833,3.41667 116.281,2.78125 C116.74,2.14583 117.344,1.82812 118.094,1.82812 M122.516,1.98438 L127.391,1.98438 L127.391,2.4375 L124.484,10 L123.906,10 L126.828,2.42188 L122.516,2.42188 L122.516,1.98438 M132.062,2.28125 C131.406,2.28125 130.917,2.59896 130.594,3.23438 C130.281,3.86979 130.125,4.78906 130.125,5.99219 C130.125,7.19531 130.281,8.11979 130.594,8.76562 C130.917,9.40104 131.406,9.71875 132.062,9.71875 C132.74,9.71875 133.234,9.40104 133.547,8.76562 C133.87,8.11979 134.031,7.19531 134.031,5.99219 C134.031,4.78906 133.87,3.86979 133.547,3.23438 C133.234,2.59896 132.74,2.28125 132.062,2.28125 M132.062,1.82812 C132.833,1.82812 133.443,2.14583 133.891,2.78125 C134.349,3.41667 134.578,4.48958 134.578,6 C134.578,7.51042 134.349,8.58333 133.891,9.21875 C133.443,9.84375 132.833,10.1562 132.062,10.1562 C131.312,10.1562 130.708,9.84375 130.25,9.21875 C129.802,8.58333 129.578,7.51042 129.578,6 C129.578,4.48958 129.802,3.41667 130.25,2.78125 C130.708,2.14583 131.312,1.82812 132.062,1.82812 M136.484,1.98438 L141.359,1.98438 L141.359,2.4375 L138.453,10 L137.875,10 L140.797,2.42188 L136.484,2.42188 L136.484,1.98438 M143.891,9.5625 L148.453,9.5625 L148.453,10 L143.328,10 L143.328,9.4375 L145.328,7.35938 C145.818,6.85938 146.266,6.39583 146.672,5.96875 C147.036,5.57292 147.281,5.26562 147.406,5.04688 C147.531,4.82812 147.594,4.53646 147.594,4.17188 C147.594,3.55729 147.406,3.0625 147.031,2.6875 C146.76,2.41667 146.318,2.28125 145.703,2.28125 C145.339,2.28125 144.927,2.38542 144.469,2.59375 C144.26,2.6875 143.911,2.89062 143.422,3.20312 L143.422,2.64062 C143.63,2.49479 143.932,2.32812 144.328,2.14062 C144.786,1.94271 145.24,1.83854 145.688,1.82812 C146.375,1.82812 146.953,2.01042 147.422,2.375 C147.88,2.72917 148.109,3.3125 148.109,4.125 C148.109,4.45833 148.047,4.77083 147.922,5.0625 C147.776,5.40625 147.552,5.75521 147.25,6.10938 C147.156,6.21354 146.87,6.51042 146.391,7 L143.891,9.5625 M150.453,1.98438 L155.328,1.98438 L155.328,2.4375 L152.422,10 L151.844,10 L154.766,2.42188 L150.453,2.42188 L150.453,1.98438 M157.438,1.98438 L162.312,1.98438 L162.312,2.4375 L159.406,10 L158.828,10 L161.75,2.42188 L157.438,2.42188 L157.438,1.98438 M167.938,2.28125 L164.609,7.4375 L167.938,7.4375 L167.938,2.28125 M167.516,1.98438 L168.484,1.98438 L168.484,7.4375 L169.641,7.4375 L169.641,7.875 L168.484,7.875 L168.484,10 L167.938,10 L167.938,7.875 L164.047,7.875 L164.047,7.3125 L167.516,1.98438 M171.406,1.98438 L176.281,1.98438 L176.281,2.4375 L173.375,10 L172.797,10 L175.719,2.42188 L171.406,2.42188 L171.406,1.98438 M182.469,5.92969 C182.135,5.53906 181.685,5.34375 181.117,5.34375 C180.549,5.34375 180.099,5.53906 179.766,5.92969 C179.432,6.32031 179.266,6.85417 179.266,7.53125 C179.266,8.20833 179.432,8.74219 179.766,9.13281 C180.099,9.52344 180.549,9.71875 181.117,9.71875 C181.685,9.71875 182.135,9.52344 182.469,9.13281 C182.802,8.74219 182.969,8.20833 182.969,7.53125 C182.969,6.85417 182.802,6.32031 182.469,5.92969 M183.125,2.15625 L183.125,2.73438 C182.875,2.57812 182.62,2.46354 182.359,2.39062 C182.109,2.30729 181.859,2.26562 181.609,2.26562 C180.547,2.26562 179.802,2.79167 179.375,3.84375 C179.177,4.3125 179.089,5.11979 179.109,6.26562 C179.286,5.86979 179.516,5.5625 179.797,5.34375 C180.161,5.05208 180.625,4.90625 181.188,4.90625 C181.854,4.90625 182.411,5.14062 182.859,5.60938 C183.307,6.08854 183.531,6.69271 183.531,7.42188 C183.531,8.24479 183.312,8.90625 182.875,9.40625 C182.438,9.90625 181.865,10.1562 181.156,10.1562 C180.312,10.1562 179.667,9.80208 179.219,9.09375 C178.771,8.375 178.547,7.34375 178.547,6 C178.547,4.5625 178.823,3.50521 179.375,2.82812 C179.917,2.16146 180.651,1.82812 181.578,1.82812 C181.828,1.82812 182.078,1.85938 182.328,1.92188 C182.578,1.97396 182.844,2.05208 183.125,2.15625 "/>
</g>

<g fill="none" stroke="#000000" stroke-opacity="1" stroke-width="1" stroke-linecap="square" stroke-linejoin="bevel" transform="matrix(1.99981,0,0,1.99981,819.894,193.982)"
font-family="sans" font-size="11" font-weight="100" font-style="normal" 
>
</g>

<g fill="none" stroke="#000000" stroke-opacity="1" stroke-width="1" stroke-linecap="square" stroke-linejoin="bevel" transform="matrix(1.99981,0,0,1.99981,819.894,193.982)"
font-family="Ubuntu" font-size="11" font-weight="400" font-style="normal" 
>
</g>

<g fill="none" stroke="#000000" stroke-opacity="1" stroke-width="1" stroke-linecap="square" stroke-linejoin="bevel" transform="matrix(1.99981,0,0,1.99981,-14.9986,274.974)"
font-family="Ubuntu" font-size="11" font-weight="400" font-style="normal" 
>
</g>

<g fill="none" stroke="#000000" stroke-opacity="1" stroke-width="1" stroke-linecap="square" stroke-linejoin="bevel" transform="matrix(1.99981,0,0,1.99981,-14.9986,274.974)"
font-family="Ubuntu" font-size="11" font-weight="400" font-style="normal" 
>
</g>

<g fill="none" stroke="#000000" stroke-opacity="1" stroke-width="1" stroke-linecap="square" stroke-linejoin="bevel" transform="matrix(1.99981,0,0,1.99981,-14.9986,274.974)"
font-family="Ubuntu" font-size="11" font-weight="400" font-style="normal" 
>
</g>

<g fill="none" stroke="#000000" stroke-opacity="1" stroke-width="1" stroke-linecap="square" stroke-linejoin="round" transform="matrix(1.99981,0,0,1.99981,-14.9986,274.974)"
font-family="Ubuntu" font-size="11" font-weight="400" font-style="normal" 
>
<rect x="372.38" y="-83" width="274.68" height="75"/>
</g>

<g fill="none" stroke="#000000" stroke-opacity="1" stroke-width="1" stroke-linecap="square" stroke-linejoin="bevel" transform="matrix(1.99981,0,0,1.99981,-14.9986,274.974)"
font-family="Ubuntu" font-size="11" font-weight="400" font-style="normal" 
>
</g>

<g fill="none" stroke="#000000" stroke-opacity="1" stroke-width="1" stroke-linecap="square" stroke-linejoin="bevel" transform="matrix(1.99981,0,0,1.99981,823.597,118.989)"
font-family="Ubuntu" font-size="11" font-weight="400" font-style="normal" 
>
</g>

<g fill="none" stroke="#000000" stroke-opacity="1" stroke-width="1" stroke-linecap="square" stroke-linejoin="bevel" transform="matrix(1.99981,0,0,1.99981,823.597,118.989)"
font-family="sans" font-size="11" font-weight="100" font-style="normal" 
>
</g>

<g fill="#000000" fill-opacity="1" stroke="#000000" stroke-opacity="1" stroke-width="1" stroke-linecap="square" stroke-linejoin="round" transform="matrix(1.99981,0,0,1.99981,823.597,118.989)"
font-family="sans" font-size="11" font-weight="100" font-style="normal" 
>
<path vector-effect="none" fill-rule="nonzero" d="M4.51562,4.40625 C4.43229,4.36458 4.32292,4.33333 4.1875,4.3125 C4.0625,4.29167 3.91146,4.28125 3.73438,4.28125 C3.11979,4.28125 2.61458,4.50521 2.21875,4.95312 C1.89583,5.31771 1.73438,5.94271 1.73438,6.82812 L1.73438,10 L1.25,10 L1.25,3.98438 L1.73438,3.98438 L1.73438,5.10938 C1.90104,4.78646 2.13021,4.51562 2.42188,4.29688 C2.81771,3.99479 3.28646,3.84375 3.82812,3.84375 C3.97396,3.84375 4.09896,3.84896 4.20312,3.85938 C4.30729,3.85938 4.41146,3.86979 4.51562,3.89062 L4.51562,4.40625 M9.34375,5.01562 C8.98958,4.52604 8.50521,4.28125 7.89062,4.28125 C7.27604,4.28125 6.79167,4.52604 6.4375,5.01562 C6.08333,5.49479 5.90625,6.15104 5.90625,6.98438 C5.90625,7.83854 6.08333,8.51042 6.4375,9 C6.79167,9.48958 7.27604,9.73438 7.89062,9.73438 C8.50521,9.73438 8.98958,9.48958 9.34375,9 C9.69792,8.5 9.875,7.82812 9.875,6.98438 C9.875,6.16146 9.69792,5.50521 9.34375,5.01562 M7.89062,3.84375 C8.65104,3.84375 9.25521,4.13021 9.70312,4.70312 C10.151,5.27604 10.375,6.03646 10.375,6.98438 C10.375,7.97396 10.151,8.75521 9.70312,9.32812 C9.25521,9.90104 8.65104,10.1875 7.89062,10.1875 C7.10938,10.1875 6.49479,9.90104 6.04688,9.32812 C5.60938,8.75521 5.39062,7.97396 5.39062,6.98438 C5.39062,6.02604 5.61458,5.26302 6.0625,4.69531 C6.51042,4.1276 7.11979,3.84375 7.89062,3.84375 M15.8906,4.15625 L15.8906,4.70312 C15.5365,4.50521 15.3177,4.39583 15.2344,4.375 C14.9844,4.32292 14.6719,4.29167 14.2969,4.28125 C13.7344,4.28125 13.2917,4.39062 12.9688,4.60938 C12.7188,4.79688 12.5938,5.11458 12.5938,5.5625 C12.5938,5.875 12.7135,6.11458 12.9531,6.28125 C13.1927,6.46875 13.5417,6.61458 14,6.71875 L14.3438,6.78125 C14.9167,6.90625 15.349,7.08333 15.6406,7.3125 C15.9844,7.58333 16.1615,7.92708 16.1719,8.34375 C16.1719,8.90625 16.0052,9.34896 15.6719,9.67188 C15.3177,9.99479 14.7396,10.1562 13.9375,10.1562 C13.5,10.1562 13.1667,10.125 12.9375,10.0625 C12.6562,9.98958 12.3646,9.89583 12.0625,9.78125 L12.0625,9.15625 C12.5,9.40625 12.7812,9.55208 12.9062,9.59375 C13.2604,9.6875 13.6146,9.73438 13.9688,9.73438 C14.5417,9.73438 14.9688,9.61458 15.25,9.375 C15.5312,9.125 15.6719,8.80729 15.6719,8.42188 C15.6719,8.08854 15.5781,7.84896 15.3906,7.70312 C15.1198,7.48438 14.6927,7.30729 14.1094,7.17188 L13.7656,7.09375 C13.2552,6.96875 12.8698,6.80208 12.6094,6.59375 C12.276,6.32292 12.1094,5.99479 12.1094,5.60938 C12.1094,4.98438 12.3099,4.53385 12.7109,4.25781 C13.112,3.98177 13.6042,3.84375 14.1875,3.84375 C14.6875,3.84375 15.0312,3.86979 15.2188,3.92188 C15.4479,3.98438 15.6719,4.0625 15.8906,4.15625 M18.7188,2.28125 L18.7188,3.98438 L20.75,3.98438 L20.75,4.40625 L18.7188,4.40625 L18.7188,8.01562 C18.7188,8.47396 18.776,8.79688 18.8906,8.98438 C19.1406,9.38021 19.5,9.57812 19.9688,9.57812 L20.75,9.57812 L20.75,10 L19.9844,10 C19.4948,10 19.0781,9.85677 18.7344,9.57031 C18.3906,9.28385 18.2188,8.76562 18.2188,8.01562 L18.2188,4.40625 L17.5,4.40625 L17.5,3.98438 L18.2188,3.98438 L18.2188,2.28125 L18.7188,2.28125 M26.0938,5.01562 C25.7396,4.52604 25.2552,4.28125 24.6406,4.28125 C24.026,4.28125 23.5417,4.52604 23.1875,5.01562 C22.8333,5.49479 22.6562,6.15104 22.6562,6.98438 C22.6562,7.83854 22.8333,8.51042 23.1875,9 C23.5417,9.48958 24.026,9.73438 24.6406,9.73438 C25.2552,9.73438 25.7396,9.48958 26.0938,9 C26.4479,8.5 26.625,7.82812 26.625,6.98438 C26.625,6.16146 26.4479,5.50521 26.0938,5.01562 M24.6406,3.84375 C25.401,3.84375 26.0052,4.13021 26.4531,4.70312 C26.901,5.27604 27.125,6.03646 27.125,6.98438 C27.125,7.97396 26.901,8.75521 26.4531,9.32812 C26.0052,9.90104 25.401,10.1875 24.6406,10.1875 C23.8594,10.1875 23.2448,9.90104 22.7969,9.32812 C22.3594,8.75521 22.1406,7.97396 22.1406,6.98438 C22.1406,6.02604 22.3646,5.26302 22.8125,4.69531 C23.2604,4.1276 23.8698,3.84375 24.6406,3.84375 M29.7188,8.64062 L29.7188,12.2812 L29.2344,12.2812 L29.2344,3.98438 L29.7188,3.98438 L29.7188,5.35938 C29.9479,4.83854 30.1927,4.47917 30.4531,4.28125 C30.8594,3.98958 31.2448,3.84375 31.6094,3.84375 C32.3177,3.84375 32.9089,4.13281 33.3828,4.71094 C33.8568,5.28906 34.0938,6.05208 34.0938,7 C34.0938,7.94792 33.8568,8.71094 33.3828,9.28906 C32.9089,9.86719 32.3177,10.1562 31.6094,10.1562 C31.2448,10.1562 30.8594,10.0052 30.4531,9.70312 C30.1927,9.51562 29.9479,9.16146 29.7188,8.64062 M32.9531,9.09375 C33.3698,8.67708 33.5781,7.97917 33.5781,7 C33.5781,6.02083 33.3698,5.32292 32.9531,4.90625 C32.5365,4.48958 32.099,4.28125 31.6406,4.28125 C31.1927,4.28125 30.7604,4.48958 30.3438,4.90625 C29.9375,5.32292 29.7344,6.02083 29.7344,7 C29.7344,7.97917 29.9375,8.67708 30.3438,9.09375 C30.7604,9.51042 31.1927,9.71875 31.6406,9.71875 C32.099,9.71875 32.5365,9.51042 32.9531,9.09375 M36.1875,3.98438 L36.6875,3.98438 L36.6875,10 L36.1875,10 L36.1875,3.98438 M36.1875,1.64062 L36.6875,1.64062 L36.6875,2.3125 L36.1875,2.3125 L36.1875,1.64062 M43.3594,4.28125 L43.3594,4.79688 C43.0677,4.61979 42.8229,4.5 42.625,4.4375 C42.2917,4.33333 41.974,4.28125 41.6719,4.28125 C40.8073,4.28125 40.1875,4.5026 39.8125,4.94531 C39.4375,5.38802 39.25,6.07292 39.25,7 C39.25,7.9375 39.4375,8.6276 39.8125,9.07031 C40.1875,9.51302 40.8073,9.73438 41.6719,9.73438 C41.9635,9.73438 42.2448,9.69271 42.5156,9.60938 C42.8073,9.53646 43.0885,9.42188 43.3594,9.26562 L43.3594,9.76562 C43.0885,9.90104 42.8073,10 42.5156,10.0625 C42.2135,10.125 41.9167,10.1562 41.625,10.1562 C40.75,10.1562 40.0521,9.91667 39.5312,9.4375 C39.0104,8.95833 38.75,8.14323 38.75,6.99219 C38.75,5.84115 39.0104,5.02604 39.5312,4.54688 C40.0521,4.07812 40.75,3.84375 41.625,3.84375 C41.9167,3.84375 42.224,3.88542 42.5469,3.96875 C42.8698,4.04167 43.1406,4.14583 43.3594,4.28125 M49.6562,12.1719 L49.6562,12.5938 L43.9375,12.5938 L43.9375,12.1719 L49.6562,12.1719 M50.875,9.5625 L55.4375,9.5625 L55.4375,10 L50.3125,10 L50.3125,9.4375 L52.3125,7.35938 C52.8021,6.85938 53.25,6.39583 53.6562,5.96875 C54.0208,5.57292 54.2656,5.26562 54.3906,5.04688 C54.5156,4.82812 54.5781,4.53646 54.5781,4.17188 C54.5781,3.55729 54.3906,3.0625 54.0156,2.6875 C53.7448,2.41667 53.3021,2.28125 52.6875,2.28125 C52.3229,2.28125 51.9115,2.38542 51.4531,2.59375 C51.2448,2.6875 50.8958,2.89062 50.4062,3.20312 L50.4062,2.64062 C50.6146,2.49479 50.9167,2.32812 51.3125,2.14062 C51.7708,1.94271 52.224,1.83854 52.6719,1.82812 C53.3594,1.82812 53.9375,2.01042 54.4062,2.375 C54.8646,2.72917 55.0938,3.3125 55.0938,4.125 C55.0938,4.45833 55.0312,4.77083 54.9062,5.0625 C54.7604,5.40625 54.5365,5.75521 54.2344,6.10938 C54.1406,6.21354 53.8542,6.51042 53.375,7 L50.875,9.5625 M58.1719,9.5625 L59.9375,9.5625 L59.9375,2.46875 L57.7344,3.35938 L57.7344,2.85938 L59.9219,1.98438 L60.4688,1.98438 L60.4688,9.5625 L62.25,9.5625 L62.25,10 L58.1719,10 L58.1719,9.5625 M67.9375,2.28125 L64.6094,7.4375 L67.9375,7.4375 L67.9375,2.28125 M67.5156,1.98438 L68.4844,1.98438 L68.4844,7.4375 L69.6406,7.4375 L69.6406,7.875 L68.4844,7.875 L68.4844,10 L67.9375,10 L67.9375,7.875 L64.0469,7.875 L64.0469,7.3125 L67.5156,1.98438 M71.8281,9.5625 L76.3906,9.5625 L76.3906,10 L71.2656,10 L71.2656,9.4375 L73.2656,7.35938 C73.7552,6.85938 74.2031,6.39583 74.6094,5.96875 C74.974,5.57292 75.2188,5.26562 75.3438,5.04688 C75.4688,4.82812 75.5312,4.53646 75.5312,4.17188 C75.5312,3.55729 75.3438,3.0625 74.9688,2.6875 C74.6979,2.41667 74.2552,2.28125 73.6406,2.28125 C73.276,2.28125 72.8646,2.38542 72.4062,2.59375 C72.1979,2.6875 71.849,2.89062 71.3594,3.20312 L71.3594,2.64062 C71.5677,2.49479 71.8698,2.32812 72.2656,2.14062 C72.724,1.94271 73.1771,1.83854 73.625,1.82812 C74.3125,1.82812 74.8906,2.01042 75.3594,2.375 C75.8177,2.72917 76.0469,3.3125 76.0469,4.125 C76.0469,4.45833 75.9844,4.77083 75.8594,5.0625 C75.7135,5.40625 75.4896,5.75521 75.1875,6.10938 C75.0938,6.21354 74.8073,6.51042 74.3281,7 L71.8281,9.5625 M82.4688,5.92969 C82.1354,5.53906 81.6849,5.34375 81.1172,5.34375 C80.5495,5.34375 80.099,5.53906 79.7656,5.92969 C79.4323,6.32031 79.2656,6.85417 79.2656,7.53125 C79.2656,8.20833 79.4323,8.74219 79.7656,9.13281 C80.099,9.52344 80.5495,9.71875 81.1172,9.71875 C81.6849,9.71875 82.1354,9.52344 82.4688,9.13281 C82.8021,8.74219 82.9688,8.20833 82.9688,7.53125 C82.9688,6.85417 82.8021,6.32031 82.4688,5.92969 M83.125,2.15625 L83.125,2.73438 C82.875,2.57812 82.6198,2.46354 82.3594,2.39062 C82.1094,2.30729 81.8594,2.26562 81.6094,2.26562 C80.5469,2.26562 79.8021,2.79167 79.375,3.84375 C79.1771,4.3125 79.0885,5.11979 79.1094,6.26562 C79.2865,5.86979 79.5156,5.5625 79.7969,5.34375 C80.1615,5.05208 80.625,4.90625 81.1875,4.90625 C81.8542,4.90625 82.4115,5.14062 82.8594,5.60938 C83.3073,6.08854 83.5312,6.69271 83.5312,7.42188 C83.5312,8.24479 83.3125,8.90625 82.875,9.40625 C82.4375,9.90625 81.8646,10.1562 81.1562,10.1562 C80.3125,10.1562 79.6667,9.80208 79.2188,9.09375 C78.7708,8.375 78.5469,7.34375 78.5469,6 C78.5469,4.5625 78.8229,3.50521 79.375,2.82812 C79.9167,2.16146 80.651,1.82812 81.5781,1.82812 C81.8281,1.82812 82.0781,1.85938 82.3281,1.92188 C82.5781,1.97396 82.8438,2.05208 83.125,2.15625 M90.0781,12.1719 L90.0781,12.5938 L84.3594,12.5938 L84.3594,12.1719 L90.0781,12.1719 M91.6094,9.5625 L93.375,9.5625 L93.375,2.46875 L91.1719,3.35938 L91.1719,2.85938 L93.3594,1.98438 L93.9062,1.98438 L93.9062,9.5625 L95.6875,9.5625 L95.6875,10 L91.6094,10 L91.6094,9.5625 M98.3594,1.98438 L102.156,1.98438 L102.156,2.42188 L98.8906,2.42188 L98.8906,5.10938 C99.0573,5.04688 99.2188,5 99.375,4.96875 C99.5312,4.9375 99.7604,4.92188 100.062,4.92188 C100.885,4.92188 101.536,5.15104 102.016,5.60938 C102.495,6.05729 102.734,6.66146 102.734,7.42188 C102.734,8.28646 102.484,8.95833 101.984,9.4375 C101.495,9.91667 100.802,10.1562 99.9062,10.1562 C99.6146,10.1562 99.3125,10.1302 99,10.0781 C98.6875,10.026 98.3646,9.95312 98.0312,9.85938 L98.0312,9.3125 C98.3125,9.4375 98.6042,9.53646 98.9062,9.60938 C99.2083,9.67188 99.526,9.70312 99.8594,9.70312 C100.568,9.70312 101.135,9.5 101.562,9.09375 C101.99,8.6875 102.203,8.13021 102.203,7.42188 C102.203,6.78646 101.995,6.28646 101.578,5.92188 C101.161,5.54688 100.599,5.35938 99.8906,5.35938 C99.7448,5.35938 99.526,5.40104 99.2344,5.48438 C98.9531,5.55729 98.6615,5.67708 98.3594,5.84375 L98.3594,1.98438 M105.578,9.5625 L107.344,9.5625 L107.344,2.46875 L105.141,3.35938 L105.141,2.85938 L107.328,1.98438 L107.875,1.98438 L107.875,9.5625 L109.656,9.5625 L109.656,10 L105.578,10 L105.578,9.5625 M114.391,2.28125 C113.734,2.28125 113.245,2.59896 112.922,3.23438 C112.609,3.86979 112.453,4.78906 112.453,5.99219 C112.453,7.19531 112.609,8.11979 112.922,8.76562 C113.245,9.40104 113.734,9.71875 114.391,9.71875 C115.068,9.71875 115.562,9.40104 115.875,8.76562 C116.198,8.11979 116.359,7.19531 116.359,5.99219 C116.359,4.78906 116.198,3.86979 115.875,3.23438 C115.562,2.59896 115.068,2.28125 114.391,2.28125 M114.391,1.82812 C115.161,1.82812 115.771,2.14583 116.219,2.78125 C116.677,3.41667 116.906,4.48958 116.906,6 C116.906,7.51042 116.677,8.58333 116.219,9.21875 C115.771,9.84375 115.161,10.1562 114.391,10.1562 C113.641,10.1562 113.036,9.84375 112.578,9.21875 C112.13,8.58333 111.906,7.51042 111.906,6 C111.906,4.48958 112.13,3.41667 112.578,2.78125 C113.036,2.14583 113.641,1.82812 114.391,1.82812 M118.812,1.98438 L123.688,1.98438 L123.688,2.4375 L120.781,10 L120.203,10 L123.125,2.42188 L118.812,2.42188 L118.812,1.98438 M128.359,2.28125 C127.703,2.28125 127.214,2.59896 126.891,3.23438 C126.578,3.86979 126.422,4.78906 126.422,5.99219 C126.422,7.19531 126.578,8.11979 126.891,8.76562 C127.214,9.40104 127.703,9.71875 128.359,9.71875 C129.036,9.71875 129.531,9.40104 129.844,8.76562 C130.167,8.11979 130.328,7.19531 130.328,5.99219 C130.328,4.78906 130.167,3.86979 129.844,3.23438 C129.531,2.59896 129.036,2.28125 128.359,2.28125 M128.359,1.82812 C129.13,1.82812 129.74,2.14583 130.188,2.78125 C130.646,3.41667 130.875,4.48958 130.875,6 C130.875,7.51042 130.646,8.58333 130.188,9.21875 C129.74,9.84375 129.13,10.1562 128.359,10.1562 C127.609,10.1562 127.005,9.84375 126.547,9.21875 C126.099,8.58333 125.875,7.51042 125.875,6 C125.875,4.48958 126.099,3.41667 126.547,2.78125 C127.005,2.14583 127.609,1.82812 128.359,1.82812 M132.781,1.98438 L137.656,1.98438 L137.656,2.4375 L134.75,10 L134.172,10 L137.094,2.42188 L132.781,2.42188 L132.781,1.98438 M140.188,9.5625 L144.75,9.5625 L144.75,10 L139.625,10 L139.625,9.4375 L141.625,7.35938 C142.115,6.85938 142.562,6.39583 142.969,5.96875 C143.333,5.57292 143.578,5.26562 143.703,5.04688 C143.828,4.82812 143.891,4.53646 143.891,4.17188 C143.891,3.55729 143.703,3.0625 143.328,2.6875 C143.057,2.41667 142.615,2.28125 142,2.28125 C141.635,2.28125 141.224,2.38542 140.766,2.59375 C140.557,2.6875 140.208,2.89062 139.719,3.20312 L139.719,2.64062 C139.927,2.49479 140.229,2.32812 140.625,2.14062 C141.083,1.94271 141.536,1.83854 141.984,1.82812 C142.672,1.82812 143.25,2.01042 143.719,2.375 C144.177,2.72917 144.406,3.3125 144.406,4.125 C144.406,4.45833 144.344,4.77083 144.219,5.0625 C144.073,5.40625 143.849,5.75521 143.547,6.10938 C143.453,6.21354 143.167,6.51042 142.688,7 L140.188,9.5625 M146.75,1.98438 L151.625,1.98438 L151.625,2.4375 L148.719,10 L148.141,10 L151.062,2.42188 L146.75,2.42188 L146.75,1.98438 M153.734,1.98438 L158.609,1.98438 L158.609,2.4375 L155.703,10 L155.125,10 L158.047,2.42188 L153.734,2.42188 L153.734,1.98438 M164.234,2.28125 L160.906,7.4375 L164.234,7.4375 L164.234,2.28125 M163.812,1.98438 L164.781,1.98438 L164.781,7.4375 L165.938,7.4375 L165.938,7.875 L164.781,7.875 L164.781,10 L164.234,10 L164.234,7.875 L160.344,7.875 L160.344,7.3125 L163.812,1.98438 M167.703,1.98438 L172.578,1.98438 L172.578,2.4375 L169.672,10 L169.094,10 L172.016,2.42188 L167.703,2.42188 L167.703,1.98438 M178.766,5.92969 C178.432,5.53906 177.982,5.34375 177.414,5.34375 C176.846,5.34375 176.396,5.53906 176.062,5.92969 C175.729,6.32031 175.562,6.85417 175.562,7.53125 C175.562,8.20833 175.729,8.74219 176.062,9.13281 C176.396,9.52344 176.846,9.71875 177.414,9.71875 C177.982,9.71875 178.432,9.52344 178.766,9.13281 C179.099,8.74219 179.266,8.20833 179.266,7.53125 C179.266,6.85417 179.099,6.32031 178.766,5.92969 M179.422,2.15625 L179.422,2.73438 C179.172,2.57812 178.917,2.46354 178.656,2.39062 C178.406,2.30729 178.156,2.26562 177.906,2.26562 C176.844,2.26562 176.099,2.79167 175.672,3.84375 C175.474,4.3125 175.385,5.11979 175.406,6.26562 C175.583,5.86979 175.812,5.5625 176.094,5.34375 C176.458,5.05208 176.922,4.90625 177.484,4.90625 C178.151,4.90625 178.708,5.14062 179.156,5.60938 C179.604,6.08854 179.828,6.69271 179.828,7.42188 C179.828,8.24479 179.609,8.90625 179.172,9.40625 C178.734,9.90625 178.161,10.1562 177.453,10.1562 C176.609,10.1562 175.964,9.80208 175.516,9.09375 C175.068,8.375 174.844,7.34375 174.844,6 C174.844,4.5625 175.12,3.50521 175.672,2.82812 C176.214,2.16146 176.948,1.82812 177.875,1.82812 C178.125,1.82812 178.375,1.85938 178.625,1.92188 C178.875,1.97396 179.141,2.05208 179.422,2.15625 "/>
</g>

<g fill="none" stroke="#000000" stroke-opacity="1" stroke-width="1" stroke-linecap="square" stroke-linejoin="bevel" transform="matrix(1.99981,0,0,1.99981,823.597,118.989)"
font-family="sans" font-size="11" font-weight="100" font-style="normal" 
>
</g>

<g fill="none" stroke="#000000" stroke-opacity="1" stroke-width="1" stroke-linecap="square" stroke-linejoin="bevel" transform="matrix(1.99981,0,0,1.99981,823.597,118.989)"
font-family="Ubuntu" font-size="11" font-weight="400" font-style="normal" 
>
</g>

<g fill="none" stroke="#000000" stroke-opacity="1" stroke-width="1" stroke-linecap="square" stroke-linejoin="bevel" transform="matrix(1.99981,0,0,1.99981,-14.9986,274.974)"
font-family="Ubuntu" font-size="11" font-weight="400" font-style="normal" 
>
</g>

<g fill="none" stroke="#000000" stroke-opacity="1" stroke-width="1" stroke-linecap="square" stroke-linejoin="bevel" transform="matrix(1.99981,0,0,1.99981,-14.9986,274.974)"
font-family="Ubuntu" font-size="11" font-weight="400" font-style="normal" 
>
</g>

<g fill="none" stroke="#000000" stroke-opacity="1" stroke-width="1" stroke-linecap="square" stroke-linejoin="bevel" transform="matrix(1.99981,0,0,1.99981,-14.9986,274.974)"
font-family="Ubuntu" font-size="11" font-weight="400" font-style="normal" 
>
</g>

<g fill="none" stroke="#000000" stroke-opacity="1" stroke-width="1" stroke-linecap="square" stroke-linejoin="round" transform="matrix(1.99981,0,0,1.99981,-14.9986,274.974)"
font-family="Ubuntu" font-size="11" font-weight="400" font-style="normal" 
>
<rect x="172.49" y="-137" width="84.89" height="129"/>
</g>

<g fill="none" stroke="#000000" stroke-opacity="1" stroke-width="1" stroke-linecap="square" stroke-linejoin="bevel" transform="matrix(1.99981,0,0,1.99981,-14.9986,274.974)"
font-family="Ubuntu" font-size="11" font-weight="400" font-style="normal" 
>
</g>

<g fill="none" stroke="#000000" stroke-opacity="1" stroke-width="1" stroke-linecap="square" stroke-linejoin="bevel" transform="matrix(1.99981,0,0,1.99981,380.266,10.999)"
font-family="Ubuntu" font-size="11" font-weight="400" font-style="normal" 
>
</g>

<g fill="none" stroke="#000000" stroke-opacity="1" stroke-width="1" stroke-linecap="square" stroke-linejoin="bevel" transform="matrix(1.99981,0,0,1.99981,380.266,10.999)"
font-family="sans" font-size="11" font-weight="100" font-style="normal" 
>
</g>

<g fill="#000000" fill-opacity="1" stroke="#000000" stroke-opacity="1" stroke-width="1" stroke-linecap="square" stroke-linejoin="round" transform="matrix(1.99981,0,0,1.99981,380.266,10.999)"
font-family="sans" font-size="11" font-weight="100" font-style="normal" 
>
<path vector-effect="none" fill-rule="nonzero" d="M1.76562,2.28125 L1.76562,3.98438 L3.79688,3.98438 L3.79688,4.40625 L1.76562,4.40625 L1.76562,8.01562 C1.76562,8.47396 1.82292,8.79688 1.9375,8.98438 C2.1875,9.38021 2.54688,9.57812 3.01562,9.57812 L3.79688,9.57812 L3.79688,10 L3.03125,10 C2.54167,10 2.125,9.85677 1.78125,9.57031 C1.4375,9.28385 1.26562,8.76562 1.26562,8.01562 L1.26562,4.40625 L0.546875,4.40625 L0.546875,3.98438 L1.26562,3.98438 L1.26562,2.28125 L1.76562,2.28125 M10.25,6.75 L10.25,7.0625 L5.6875,7.0625 C5.6875,8.02083 5.875,8.69792 6.25,9.09375 C6.66667,9.52083 7.28125,9.73438 8.09375,9.73438 C8.3125,9.73438 8.59896,9.6875 8.95312,9.59375 C9.30729,9.5 9.66146,9.35938 10.0156,9.17188 L10.0156,9.6875 C9.66146,9.84375 9.29948,9.96094 8.92969,10.0391 C8.5599,10.1172 8.26562,10.1562 8.04688,10.1562 C7.11979,10.1562 6.42188,9.90625 5.95312,9.40625 C5.44271,8.875 5.1875,8.09375 5.1875,7.0625 C5.1875,5.98958 5.41667,5.1875 5.875,4.65625 C6.35417,4.11458 7.02083,3.84375 7.875,3.84375 C8.65625,3.84375 9.25,4.10417 9.65625,4.625 C10.0521,5.16667 10.25,5.875 10.25,6.75 M9.75,6.64062 C9.75,5.79688 9.55729,5.18229 9.17188,4.79688 C8.85938,4.45312 8.42708,4.28125 7.875,4.28125 C7.28125,4.28125 6.78125,4.45833 6.375,4.8125 C6,5.14583 5.77604,5.75521 5.70312,6.64062 L9.75,6.64062 M12.3281,1.64062 L12.8125,1.64062 L12.8125,10 L12.3281,10 L12.3281,1.64062 M20.0625,6.75 L20.0625,7.0625 L15.5,7.0625 C15.5,8.02083 15.6875,8.69792 16.0625,9.09375 C16.4792,9.52083 17.0938,9.73438 17.9062,9.73438 C18.125,9.73438 18.4115,9.6875 18.7656,9.59375 C19.1198,9.5 19.474,9.35938 19.8281,9.17188 L19.8281,9.6875 C19.474,9.84375 19.112,9.96094 18.7422,10.0391 C18.3724,10.1172 18.0781,10.1562 17.8594,10.1562 C16.9323,10.1562 16.2344,9.90625 15.7656,9.40625 C15.2552,8.875 15,8.09375 15,7.0625 C15,5.98958 15.2292,5.1875 15.6875,4.65625 C16.1667,4.11458 16.8333,3.84375 17.6875,3.84375 C18.4688,3.84375 19.0625,4.10417 19.4688,4.625 C19.8646,5.16667 20.0625,5.875 20.0625,6.75 M19.5625,6.64062 C19.5625,5.79688 19.3698,5.18229 18.9844,4.79688 C18.6719,4.45312 18.2396,4.28125 17.6875,4.28125 C17.0938,4.28125 16.5938,4.45833 16.1875,4.8125 C15.8125,5.14583 15.5885,5.75521 15.5156,6.64062 L19.5625,6.64062 M25.7188,5.01562 C25.3646,4.52604 24.8802,4.28125 24.2656,4.28125 C23.651,4.28125 23.1667,4.52604 22.8125,5.01562 C22.4583,5.49479 22.2812,6.15104 22.2812,6.98438 C22.2812,7.83854 22.4583,8.51042 22.8125,9 C23.1667,9.48958 23.651,9.73438 24.2656,9.73438 C24.8802,9.73438 25.3646,9.48958 25.7188,9 C26.0729,8.5 26.25,7.82812 26.25,6.98438 C26.25,6.16146 26.0729,5.50521 25.7188,5.01562 M24.2656,3.84375 C25.026,3.84375 25.6302,4.13021 26.0781,4.70312 C26.526,5.27604 26.75,6.03646 26.75,6.98438 C26.75,7.97396 26.526,8.75521 26.0781,9.32812 C25.6302,9.90104 25.026,10.1875 24.2656,10.1875 C23.4844,10.1875 22.8698,9.90104 22.4219,9.32812 C21.9844,8.75521 21.7656,7.97396 21.7656,6.98438 C21.7656,6.02604 21.9896,5.26302 22.4375,4.69531 C22.8854,4.1276 23.4948,3.84375 24.2656,3.84375 M29.3438,8.64062 L29.3438,12.2812 L28.8594,12.2812 L28.8594,3.98438 L29.3438,3.98438 L29.3438,5.35938 C29.5729,4.83854 29.8177,4.47917 30.0781,4.28125 C30.4844,3.98958 30.8698,3.84375 31.2344,3.84375 C31.9427,3.84375 32.5339,4.13281 33.0078,4.71094 C33.4818,5.28906 33.7188,6.05208 33.7188,7 C33.7188,7.94792 33.4818,8.71094 33.0078,9.28906 C32.5339,9.86719 31.9427,10.1562 31.2344,10.1562 C30.8698,10.1562 30.4844,10.0052 30.0781,9.70312 C29.8177,9.51562 29.5729,9.16146 29.3438,8.64062 M32.5781,9.09375 C32.9948,8.67708 33.2031,7.97917 33.2031,7 C33.2031,6.02083 32.9948,5.32292 32.5781,4.90625 C32.1615,4.48958 31.724,4.28125 31.2656,4.28125 C30.8177,4.28125 30.3854,4.48958 29.9688,4.90625 C29.5625,5.32292 29.3594,6.02083 29.3594,7 C29.3594,7.97917 29.5625,8.67708 29.9688,9.09375 C30.3854,9.51042 30.8177,9.71875 31.2656,9.71875 C31.724,9.71875 32.1615,9.51042 32.5781,9.09375 "/>
</g>

<g fill="none" stroke="#000000" stroke-opacity="1" stroke-width="1" stroke-linecap="square" stroke-linejoin="bevel" transform="matrix(1.99981,0,0,1.99981,380.266,10.999)"
font-family="sans" font-size="11" font-weight="100" font-style="normal" 
>
</g>

<g fill="none" stroke="#000000" stroke-opacity="1" stroke-width="1" stroke-linecap="square" stroke-linejoin="bevel" transform="matrix(1.99981,0,0,1.99981,380.266,10.999)"
font-family="Ubuntu" font-size="11" font-weight="400" font-style="normal" 
>
</g>

<g fill="none" stroke="#000000" stroke-opacity="1" stroke-width="1" stroke-linecap="square" stroke-linejoin="bevel" transform="matrix(1.99981,0,0,1.99981,-14.9986,274.974)"
font-family="Ubuntu" font-size="11" font-weight="400" font-style="normal" 
>
</g>

<g fill="none" stroke="#000000" stroke-opacity="1" stroke-width="1" stroke-linecap="square" stroke-linejoin="bevel" transform="matrix(1.99981,0,0,1.99981,-14.9986,274.974)"
font-family="Ubuntu" font-size="11" font-weight="400" font-style="normal" 
>
</g>

<g fill="none" stroke="#000000" stroke-opacity="1" stroke-width="1" stroke-linecap="square" stroke-linejoin="bevel" transform="matrix(1.99981,0,0,1.99981,-14.9986,274.974)"
font-family="Ubuntu" font-size="11" font-weight="400" font-style="normal" 
>
</g>

<g fill="none" stroke="#000000" stroke-opacity="1" stroke-width="1" stroke-linecap="square" stroke-linejoin="round" transform="matrix(1.99981,0,0,1.99981,-14.9986,274.974)"
font-family="Ubuntu" font-size="11" font-weight="400" font-style="normal" 
>
<rect x="8" y="-83" width="126.49" height="75"/>
</g>

<g fill="none" stroke="#000000" stroke-opacity="1" stroke-width="1" stroke-linecap="square" stroke-linejoin="bevel" transform="matrix(1.99981,0,0,1.99981,-14.9986,274.974)"
font-family="Ubuntu" font-size="11" font-weight="400" font-style="normal" 
>
</g>

<g fill="none" stroke="#000000" stroke-opacity="1" stroke-width="1" stroke-linecap="square" stroke-linejoin="bevel" transform="matrix(1.99981,0,0,1.99981,64.5308,118.989)"
font-family="Ubuntu" font-size="11" font-weight="400" font-style="normal" 
>
</g>

<g fill="none" stroke="#000000" stroke-opacity="1" stroke-width="1" stroke-linecap="square" stroke-linejoin="bevel" transform="matrix(1.99981,0,0,1.99981,64.5308,118.989)"
font-family="sans" font-size="11" font-weight="100" font-style="normal" 
>
</g>

<g fill="#000000" fill-opacity="1" stroke="#000000" stroke-opacity="1" stroke-width="1" stroke-linecap="square" stroke-linejoin="round" transform="matrix(1.99981,0,0,1.99981,64.5308,118.989)"
font-family="sans" font-size="11" font-weight="100" font-style="normal" 
>
<path vector-effect="none" fill-rule="nonzero" d="M5.25,5.35938 L5.25,1.64062 L5.71875,1.64062 L5.71875,10 L5.25,10 L5.25,8.64062 C5.02083,9.16146 4.77083,9.51562 4.5,9.70312 C4.10417,10.0052 3.72396,10.1562 3.35938,10.1562 C2.65104,10.1562 2.0599,9.86719 1.58594,9.28906 C1.11198,8.71094 0.875,7.94792 0.875,7 C0.875,6.05208 1.11198,5.28906 1.58594,4.71094 C2.0599,4.13281 2.65104,3.84375 3.35938,3.84375 C3.72396,3.84375 4.10417,3.98958 4.5,4.28125 C4.77083,4.47917 5.02083,4.83854 5.25,5.35938 M2.01562,4.90625 C1.59896,5.32292 1.39062,6.02083 1.39062,7 C1.39062,7.97917 1.59896,8.67708 2.01562,9.09375 C2.43229,9.51042 2.86979,9.71875 3.32812,9.71875 C3.77604,9.71875 4.20833,9.51042 4.625,9.09375 C5.03125,8.67708 5.23438,7.97917 5.23438,7 C5.23438,6.02083 5.03125,5.32292 4.625,4.90625 C4.20833,4.48958 3.77604,4.28125 3.32812,4.28125 C2.86979,4.28125 2.43229,4.48958 2.01562,4.90625 M11.7969,5.01562 C11.4427,4.52604 10.9583,4.28125 10.3438,4.28125 C9.72917,4.28125 9.24479,4.52604 8.89062,5.01562 C8.53646,5.49479 8.35938,6.15104 8.35938,6.98438 C8.35938,7.83854 8.53646,8.51042 8.89062,9 C9.24479,9.48958 9.72917,9.73438 10.3438,9.73438 C10.9583,9.73438 11.4427,9.48958 11.7969,9 C12.151,8.5 12.3281,7.82812 12.3281,6.98438 C12.3281,6.16146 12.151,5.50521 11.7969,5.01562 M10.3438,3.84375 C11.1042,3.84375 11.7083,4.13021 12.1562,4.70312 C12.6042,5.27604 12.8281,6.03646 12.8281,6.98438 C12.8281,7.97396 12.6042,8.75521 12.1562,9.32812 C11.7083,9.90104 11.1042,10.1875 10.3438,10.1875 C9.5625,10.1875 8.94792,9.90104 8.5,9.32812 C8.0625,8.75521 7.84375,7.97396 7.84375,6.98438 C7.84375,6.02604 8.06771,5.26302 8.51562,4.69531 C8.96354,4.1276 9.57292,3.84375 10.3438,3.84375 M19.4844,6.375 L19.4844,10 L18.9844,10 L18.9844,6.40625 C18.9844,5.625 18.8594,5.07552 18.6094,4.75781 C18.3594,4.4401 17.9896,4.28125 17.5,4.28125 C16.9271,4.28125 16.4427,4.45312 16.0469,4.79688 C15.6302,5.14062 15.4219,5.73958 15.4219,6.59375 L15.4219,10 L14.9375,10 L14.9375,3.98438 L15.4219,3.98438 L15.4219,5.10938 C15.599,4.74479 15.8333,4.46875 16.125,4.28125 C16.5417,3.98958 17.0052,3.84375 17.5156,3.84375 C18.1198,3.84375 18.599,4.04688 18.9531,4.45312 C19.3073,4.84896 19.4844,5.48958 19.4844,6.375 M25.9062,6.92188 C25.9062,6.08854 25.737,5.44271 25.3984,4.98438 C25.0599,4.52604 24.5833,4.29688 23.9688,4.29688 C23.3646,4.29688 22.8932,4.52604 22.5547,4.98438 C22.2161,5.44271 22.0469,6.08854 22.0469,6.92188 C22.0469,7.75521 22.2161,8.40104 22.5547,8.85938 C22.8932,9.31771 23.3646,9.54688 23.9688,9.54688 C24.5833,9.54688 25.0599,9.31771 25.3984,8.85938 C25.737,8.40104 25.9062,7.75521 25.9062,6.92188 M26.3906,9.25 C26.3906,10.5 26.1536,11.3177 25.6797,11.7031 C25.2057,12.0885 24.6042,12.2812 23.875,12.2812 C23.5208,12.2812 23.1927,12.2604 22.8906,12.2188 C22.5781,12.1562 22.276,12.0729 21.9844,11.9688 L21.9844,11.4062 C22.276,11.5625 22.5625,11.6797 22.8438,11.7578 C23.125,11.8359 23.4167,11.875 23.7188,11.875 C24.3125,11.875 24.8255,11.7474 25.2578,11.4922 C25.6901,11.237 25.9062,10.5521 25.9062,9.4375 L25.9062,8.48438 C25.75,8.90104 25.5469,9.22917 25.2969,9.46875 C24.901,9.82292 24.4583,10 23.9688,10 C23.2083,10 22.6146,9.73177 22.1875,9.19531 C21.7604,8.65885 21.5469,7.90104 21.5469,6.92188 C21.5469,5.94271 21.7604,5.1849 22.1875,4.64844 C22.6146,4.11198 23.2083,3.84375 23.9688,3.84375 C24.4583,3.84375 24.875,3.99479 25.2188,4.29688 C25.4896,4.53646 25.7188,4.85938 25.9062,5.26562 L25.9062,3.98438 L26.3906,3.98438 L26.3906,9.25 M32.2188,9.09375 C32.6354,8.67708 32.8438,7.97917 32.8438,7 C32.8438,6.02083 32.6354,5.32292 32.2188,4.90625 C31.8021,4.48958 31.3646,4.28125 30.9062,4.28125 C30.4583,4.28125 30.026,4.48958 29.6094,4.90625 C29.2031,5.32292 29,6.02083 29,7 C29,7.97917 29.2031,8.67708 29.6094,9.09375 C30.026,9.51042 30.4583,9.71875 30.9062,9.71875 C31.3646,9.71875 31.8021,9.51042 32.2188,9.09375 M28.9844,5.35938 C29.2135,4.83854 29.4583,4.47917 29.7188,4.28125 C30.125,3.98958 30.5104,3.84375 30.875,3.84375 C31.5833,3.84375 32.1745,4.13281 32.6484,4.71094 C33.1224,5.28906 33.3594,6.05208 33.3594,7 C33.3594,7.94792 33.1224,8.71094 32.6484,9.28906 C32.1745,9.86719 31.5833,10.1562 30.875,10.1562 C30.5104,10.1562 30.125,10.0052 29.7188,9.70312 C29.4583,9.51562 29.2135,9.16146 28.9844,8.64062 L28.9844,10 L28.5,10 L28.5,1.64062 L28.9844,1.64062 L28.9844,5.35938 M35.4062,7.60938 L35.4062,3.98438 L35.8906,3.98438 L35.8906,7.57812 C35.8906,8.35938 36.0156,8.90885 36.2656,9.22656 C36.5156,9.54427 36.8854,9.70312 37.375,9.70312 C37.9479,9.70312 38.4375,9.53125 38.8438,9.1875 C39.25,8.84375 39.4531,8.24479 39.4531,7.39062 L39.4531,3.98438 L39.9375,3.98438 L39.9375,10 L39.4531,10 L39.4531,8.875 C39.276,9.23958 39.0417,9.51562 38.75,9.70312 C38.3333,9.99479 37.8698,10.1406 37.3594,10.1406 C36.7656,10.1406 36.2917,9.9375 35.9375,9.53125 C35.5833,9.13542 35.4062,8.49479 35.4062,7.60938 M46.7969,12.1719 L46.7969,12.5938 L41.0781,12.5938 L41.0781,12.1719 L46.7969,12.1719 M47.9688,3.98438 L48.4688,3.98438 L48.4688,10.1094 C48.4688,10.9219 48.3438,11.4896 48.0938,11.8125 C47.8438,12.125 47.4323,12.2812 46.8594,12.2812 L46.4844,12.2812 L46.4844,11.875 L46.75,11.875 C47.1562,11.875 47.4635,11.7812 47.6719,11.5938 C47.8698,11.4167 47.9688,10.9219 47.9688,10.1094 L47.9688,3.98438 M47.9688,1.64062 L48.4688,1.64062 L48.4688,2.3125 L47.9688,2.3125 L47.9688,1.64062 M54.5625,5.01562 C54.2083,4.52604 53.724,4.28125 53.1094,4.28125 C52.4948,4.28125 52.0104,4.52604 51.6562,5.01562 C51.3021,5.49479 51.125,6.15104 51.125,6.98438 C51.125,7.83854 51.3021,8.51042 51.6562,9 C52.0104,9.48958 52.4948,9.73438 53.1094,9.73438 C53.724,9.73438 54.2083,9.48958 54.5625,9 C54.9167,8.5 55.0938,7.82812 55.0938,6.98438 C55.0938,6.16146 54.9167,5.50521 54.5625,5.01562 M53.1094,3.84375 C53.8698,3.84375 54.474,4.13021 54.9219,4.70312 C55.3698,5.27604 55.5938,6.03646 55.5938,6.98438 C55.5938,7.97396 55.3698,8.75521 54.9219,9.32812 C54.474,9.90104 53.8698,10.1875 53.1094,10.1875 C52.3281,10.1875 51.7135,9.90104 51.2656,9.32812 C50.8281,8.75521 50.6094,7.97396 50.6094,6.98438 C50.6094,6.02604 50.8333,5.26302 51.2812,4.69531 C51.7292,4.1276 52.3385,3.84375 53.1094,3.84375 M59.7344,10.5625 C59.5156,11.0938 59.2812,11.4635 59.0312,11.6719 C58.6979,11.9427 58.375,12.0781 58.0625,12.0781 L57.3281,12.0781 L57.3281,11.6562 L57.9531,11.6562 C58.2135,11.6562 58.4427,11.5729 58.6406,11.4062 C58.8906,11.1875 59.099,10.8698 59.2656,10.4531 L59.4375,10 L57.0469,3.98438 L57.5781,3.98438 L59.7031,9.34375 L61.8438,3.98438 L62.375,3.98438 L59.7344,10.5625"/>
</g>

<g fill="none" stroke="#000000" stroke-opacity="1" stroke-width="1" stroke-linecap="square" stroke-linejoin="bevel" transform="matrix(1.99981,0,0,1.99981,64.5308,118.989)"
font-family="sans" font-size="11" font-weight="100" font-style="normal" 
>
</g>

<g fill="none" stroke="#000000" stroke-opacity="1" stroke-width="1" stroke-linecap="square" stroke-linejoin="bevel" transform="matrix(1.99981,0,0,1.99981,64.5308,118.989)"
font-family="Ubuntu" font-size="11" font-weight="400" font-style="normal" 
>
</g>

<g fill="none" stroke="#000000" stroke-opacity="1" stroke-width="1" stroke-linecap="square" stroke-linejoin="bevel" transform="matrix(1.99981,0,0,1.99981,-14.9986,274.974)"
font-family="Ubuntu" font-size="11" font-weight="400" font-style="normal" 
>
</g>

<g fill="none" stroke="#000000" stroke-opacity="1" stroke-width="1" stroke-linecap="square" stroke-linejoin="bevel" transform="matrix(1.99981,0,0,1.99981,-14.9986,274.974)"
font-family="Ubuntu" font-size="11" font-weight="400" font-style="normal" 
>
</g>

<g fill="none" stroke="#000000" stroke-opacity="1" stroke-width="1" stroke-linecap="square" stroke-linejoin="bevel" transform="matrix(1.99981,0,0,1.99981,-14.9986,274.974)"
font-family="Ubuntu" font-size="11" font-weight="400" font-style="normal" 
>
</g>

<g fill="none" stroke="#000000" stroke-opacity="1" stroke-width="1" stroke-linecap="square" stroke-linejoin="round" transform="matrix(1.99981,0,0,1.99981,-14.9986,274.974)"
font-family="Ubuntu" font-size="11" font-weight="400" font-style="normal" 
>
<path vector-effect="none" fill-rule="evenodd" d="M126.62,-34 C141.05,-34 156.44,-34 170.22,-34 "/>
</g>

<g fill="none" stroke="#000000" stroke-opacity="1" stroke-width="1" stroke-linecap="square" stroke-linejoin="bevel" transform="matrix(1.99981,0,0,1.99981,-14.9986,274.974)"
font-family="Ubuntu" font-size="11" font-weight="400" font-style="normal" 
>
</g>

<g fill="none" stroke="#000000" stroke-opacity="1" stroke-width="1" stroke-linecap="square" stroke-linejoin="bevel" transform="matrix(1.99981,0,0,1.99981,271.986,178.983)"
font-family="Ubuntu" font-size="11" font-weight="400" font-style="normal" 
>
</g>

<g fill="none" stroke="#000000" stroke-opacity="1" stroke-width="1" stroke-linecap="square" stroke-linejoin="bevel" transform="matrix(1.99981,0,0,1.99981,271.986,178.983)"
font-family="sans" font-size="11" font-weight="100" font-style="normal" 
>
</g>

<g fill="#000000" fill-opacity="1" stroke="#000000" stroke-opacity="1" stroke-width="1" stroke-linecap="square" stroke-linejoin="round" transform="matrix(1.99981,0,0,1.99981,271.986,178.983)"
font-family="sans" font-size="11" font-weight="100" font-style="normal" 
>
<path vector-effect="none" fill-rule="nonzero" d="M2.96875,1.98438 L3.53125,1.98438 L0.734375,11.0156 L0.171875,11.0156 L2.96875,1.98438 M4.98438,3.98438 L5.48438,3.98438 L5.48438,10.1094 C5.48438,10.9219 5.35938,11.4896 5.10938,11.8125 C4.85938,12.125 4.44792,12.2812 3.875,12.2812 L3.5,12.2812 L3.5,11.875 L3.76562,11.875 C4.17188,11.875 4.47917,11.7812 4.6875,11.5938 C4.88542,11.4167 4.98438,10.9219 4.98438,10.1094 L4.98438,3.98438 M4.98438,1.64062 L5.48438,1.64062 L5.48438,2.3125 L4.98438,2.3125 L4.98438,1.64062 M11.5781,5.01562 C11.224,4.52604 10.7396,4.28125 10.125,4.28125 C9.51042,4.28125 9.02604,4.52604 8.67188,5.01562 C8.31771,5.49479 8.14062,6.15104 8.14062,6.98438 C8.14062,7.83854 8.31771,8.51042 8.67188,9 C9.02604,9.48958 9.51042,9.73438 10.125,9.73438 C10.7396,9.73438 11.224,9.48958 11.5781,9 C11.9323,8.5 12.1094,7.82812 12.1094,6.98438 C12.1094,6.16146 11.9323,5.50521 11.5781,5.01562 M10.125,3.84375 C10.8854,3.84375 11.4896,4.13021 11.9375,4.70312 C12.3854,5.27604 12.6094,6.03646 12.6094,6.98438 C12.6094,7.97396 12.3854,8.75521 11.9375,9.32812 C11.4896,9.90104 10.8854,10.1875 10.125,10.1875 C9.34375,10.1875 8.72917,9.90104 8.28125,9.32812 C7.84375,8.75521 7.625,7.97396 7.625,6.98438 C7.625,6.02604 7.84896,5.26302 8.29688,4.69531 C8.74479,4.1276 9.35417,3.84375 10.125,3.84375 M16.75,10.5625 C16.5312,11.0938 16.2969,11.4635 16.0469,11.6719 C15.7135,11.9427 15.3906,12.0781 15.0781,12.0781 L14.3438,12.0781 L14.3438,11.6562 L14.9688,11.6562 C15.2292,11.6562 15.4583,11.5729 15.6562,11.4062 C15.9062,11.1875 16.1146,10.8698 16.2812,10.4531 L16.4531,10 L14.0625,3.98438 L14.5938,3.98438 L16.7188,9.34375 L18.8594,3.98438 L19.3906,3.98438 L16.75,10.5625"/>
</g>

<g fill="none" stroke="#000000" stroke-opacity="1" stroke-width="1" stroke-linecap="square" stroke-linejoin="bevel" transform="matrix(1.99981,0,0,1.99981,271.986,178.983)"
font-family="sans" font-size="11" font-weight="100" font-style="normal" 
>
</g>

<g fill="none" stroke="#000000" stroke-opacity="1" stroke-width="1" stroke-linecap="square" stroke-linejoin="bevel" transform="matrix(1.99981,0,0,1.99981,271.986,178.983)"
font-family="Ubuntu" font-size="11" font-weight="400" font-style="normal" 
>
</g>

<g fill="none" stroke="#000000" stroke-opacity="1" stroke-width="1" stroke-linecap="square" stroke-linejoin="bevel" transform="matrix(1.99981,0,0,1.99981,-14.9986,274.974)"
font-family="Ubuntu" font-size="11" font-weight="400" font-style="normal" 
>
</g>

<g fill="#000000" fill-opacity="1" stroke="#000000" stroke-opacity="1" stroke-width="1" stroke-linecap="square" stroke-linejoin="round" transform="matrix(1.99981,0,0,1.99981,-14.9986,274.974)"
font-family="Ubuntu" font-size="11" font-weight="400" font-style="normal" 
>
<path vector-effect="none" fill-rule="evenodd" d="M170.22,-34 L170.22,-30.437 L180.4,-34 L170.22,-37.563 L170.22,-34"/>
</g>

<g fill="none" stroke="#000000" stroke-opacity="1" stroke-width="1" stroke-linecap="square" stroke-linejoin="bevel" transform="matrix(1.99981,0,0,1.99981,-14.9986,274.974)"
font-family="Ubuntu" font-size="11" font-weight="400" font-style="normal" 
>
</g>

<g fill="none" stroke="#000000" stroke-opacity="1" stroke-width="1" stroke-linecap="square" stroke-linejoin="bevel" transform="matrix(1.99981,0,0,1.99981,-14.9986,274.974)"
font-family="Ubuntu" font-size="11" font-weight="400" font-style="normal" 
>
</g>

<g fill="none" stroke="#000000" stroke-opacity="1" stroke-width="1" stroke-linecap="square" stroke-linejoin="bevel" transform="matrix(1.99981,0,0,1.99981,-14.9986,274.974)"
font-family="Ubuntu" font-size="11" font-weight="400" font-style="normal" 
>
</g>

<g fill="none" stroke="#000000" stroke-opacity="1" stroke-width="1" stroke-linecap="square" stroke-linejoin="bevel" transform="matrix(1.99981,0,0,1.99981,-14.9986,274.974)"
font-family="Ubuntu" font-size="11" font-weight="400" font-style="normal" 
>
</g>

<g fill="none" stroke="#000000" stroke-opacity="1" stroke-width="1" stroke-linecap="square" stroke-linejoin="round" transform="matrix(1.99981,0,0,1.99981,-14.9986,274.974)"
font-family="Ubuntu" font-size="11" font-weight="400" font-style="normal" 
>
<path vector-effect="none" fill-rule="evenodd" d="M249.52,-34 C279.41,-34 325.2,-34 370.04,-34 "/>
</g>

<g fill="none" stroke="#000000" stroke-opacity="1" stroke-width="1" stroke-linecap="square" stroke-linejoin="bevel" transform="matrix(1.99981,0,0,1.99981,-14.9986,274.974)"
font-family="Ubuntu" font-size="11" font-weight="400" font-style="normal" 
>
</g>

<g fill="none" stroke="#000000" stroke-opacity="1" stroke-width="1" stroke-linecap="square" stroke-linejoin="bevel" transform="matrix(1.99981,0,0,1.99981,519.086,178.983)"
font-family="Ubuntu" font-size="11" font-weight="400" font-style="normal" 
>
</g>

<g fill="none" stroke="#000000" stroke-opacity="1" stroke-width="1" stroke-linecap="square" stroke-linejoin="bevel" transform="matrix(1.99981,0,0,1.99981,519.086,178.983)"
font-family="sans" font-size="11" font-weight="100" font-style="normal" 
>
</g>

<g fill="#000000" fill-opacity="1" stroke="#000000" stroke-opacity="1" stroke-width="1" stroke-linecap="square" stroke-linejoin="round" transform="matrix(1.99981,0,0,1.99981,519.086,178.983)"
font-family="sans" font-size="11" font-weight="100" font-style="normal" 
>
<path vector-effect="none" fill-rule="nonzero" d="M2.96875,1.98438 L3.53125,1.98438 L0.734375,11.0156 L0.171875,11.0156 L2.96875,1.98438 M5.59375,2.4375 L5.59375,9.5625 L7.17188,9.5625 C8.39062,9.5625 9.28125,9.27604 9.84375,8.70312 C10.4062,8.13021 10.6875,7.22917 10.6875,6 C10.6875,4.77083 10.4062,3.86979 9.84375,3.29688 C9.28125,2.72396 8.39062,2.4375 7.17188,2.4375 L5.59375,2.4375 M5.04688,1.98438 L7.01562,1.98438 C8.47396,1.98438 9.54688,2.30729 10.2344,2.95312 C10.9115,3.59896 11.25,4.60938 11.25,5.98438 C11.25,7.36979 10.9062,8.38542 10.2188,9.03125 C9.53125,9.67708 8.46354,10 7.01562,10 L5.04688,10 L5.04688,1.98438 M17,5.01562 C16.6458,4.52604 16.1615,4.28125 15.5469,4.28125 C14.9323,4.28125 14.4479,4.52604 14.0938,5.01562 C13.7396,5.49479 13.5625,6.15104 13.5625,6.98438 C13.5625,7.83854 13.7396,8.51042 14.0938,9 C14.4479,9.48958 14.9323,9.73438 15.5469,9.73438 C16.1615,9.73438 16.6458,9.48958 17,9 C17.3542,8.5 17.5312,7.82812 17.5312,6.98438 C17.5312,6.16146 17.3542,5.50521 17,5.01562 M15.5469,3.84375 C16.3073,3.84375 16.9115,4.13021 17.3594,4.70312 C17.8073,5.27604 18.0312,6.03646 18.0312,6.98438 C18.0312,7.97396 17.8073,8.75521 17.3594,9.32812 C16.9115,9.90104 16.3073,10.1875 15.5469,10.1875 C14.7656,10.1875 14.151,9.90104 13.7031,9.32812 C13.2656,8.75521 13.0469,7.97396 13.0469,6.98438 C13.0469,6.02604 13.2708,5.26302 13.7188,4.69531 C14.1667,4.1276 14.776,3.84375 15.5469,3.84375 M24.6875,6.375 L24.6875,10 L24.1875,10 L24.1875,6.40625 C24.1875,5.625 24.0625,5.07552 23.8125,4.75781 C23.5625,4.4401 23.1927,4.28125 22.7031,4.28125 C22.1302,4.28125 21.6458,4.45312 21.25,4.79688 C20.8333,5.14062 20.625,5.73958 20.625,6.59375 L20.625,10 L20.1406,10 L20.1406,3.98438 L20.625,3.98438 L20.625,5.10938 C20.8021,4.74479 21.0365,4.46875 21.3281,4.28125 C21.7448,3.98958 22.2083,3.84375 22.7188,3.84375 C23.3229,3.84375 23.8021,4.04688 24.1562,4.45312 C24.5104,4.84896 24.6875,5.48958 24.6875,6.375 M31.1094,6.92188 C31.1094,6.08854 30.9401,5.44271 30.6016,4.98438 C30.263,4.52604 29.7865,4.29688 29.1719,4.29688 C28.5677,4.29688 28.0964,4.52604 27.7578,4.98438 C27.4193,5.44271 27.25,6.08854 27.25,6.92188 C27.25,7.75521 27.4193,8.40104 27.7578,8.85938 C28.0964,9.31771 28.5677,9.54688 29.1719,9.54688 C29.7865,9.54688 30.263,9.31771 30.6016,8.85938 C30.9401,8.40104 31.1094,7.75521 31.1094,6.92188 M31.5938,9.25 C31.5938,10.5 31.3568,11.3177 30.8828,11.7031 C30.4089,12.0885 29.8073,12.2812 29.0781,12.2812 C28.724,12.2812 28.3958,12.2604 28.0938,12.2188 C27.7812,12.1562 27.4792,12.0729 27.1875,11.9688 L27.1875,11.4062 C27.4792,11.5625 27.7656,11.6797 28.0469,11.7578 C28.3281,11.8359 28.6198,11.875 28.9219,11.875 C29.5156,11.875 30.0286,11.7474 30.4609,11.4922 C30.8932,11.237 31.1094,10.5521 31.1094,9.4375 L31.1094,8.48438 C30.9531,8.90104 30.75,9.22917 30.5,9.46875 C30.1042,9.82292 29.6615,10 29.1719,10 C28.4115,10 27.8177,9.73177 27.3906,9.19531 C26.9635,8.65885 26.75,7.90104 26.75,6.92188 C26.75,5.94271 26.9635,5.1849 27.3906,4.64844 C27.8177,4.11198 28.4115,3.84375 29.1719,3.84375 C29.6615,3.84375 30.0781,3.99479 30.4219,4.29688 C30.6927,4.53646 30.9219,4.85938 31.1094,5.26562 L31.1094,3.98438 L31.5938,3.98438 L31.5938,9.25 M37.4219,9.09375 C37.8385,8.67708 38.0469,7.97917 38.0469,7 C38.0469,6.02083 37.8385,5.32292 37.4219,4.90625 C37.0052,4.48958 36.5677,4.28125 36.1094,4.28125 C35.6615,4.28125 35.2292,4.48958 34.8125,4.90625 C34.4062,5.32292 34.2031,6.02083 34.2031,7 C34.2031,7.97917 34.4062,8.67708 34.8125,9.09375 C35.2292,9.51042 35.6615,9.71875 36.1094,9.71875 C36.5677,9.71875 37.0052,9.51042 37.4219,9.09375 M34.1875,5.35938 C34.4167,4.83854 34.6615,4.47917 34.9219,4.28125 C35.3281,3.98958 35.7135,3.84375 36.0781,3.84375 C36.7865,3.84375 37.3776,4.13281 37.8516,4.71094 C38.3255,5.28906 38.5625,6.05208 38.5625,7 C38.5625,7.94792 38.3255,8.71094 37.8516,9.28906 C37.3776,9.86719 36.7865,10.1562 36.0781,10.1562 C35.7135,10.1562 35.3281,10.0052 34.9219,9.70312 C34.6615,9.51562 34.4167,9.16146 34.1875,8.64062 L34.1875,10 L33.7031,10 L33.7031,1.64062 L34.1875,1.64062 L34.1875,5.35938 M40.6094,7.60938 L40.6094,3.98438 L41.0938,3.98438 L41.0938,7.57812 C41.0938,8.35938 41.2188,8.90885 41.4688,9.22656 C41.7188,9.54427 42.0885,9.70312 42.5781,9.70312 C43.151,9.70312 43.6406,9.53125 44.0469,9.1875 C44.4531,8.84375 44.6562,8.24479 44.6562,7.39062 L44.6562,3.98438 L45.1406,3.98438 L45.1406,10 L44.6562,10 L44.6562,8.875 C44.4792,9.23958 44.2448,9.51562 43.9531,9.70312 C43.5365,9.99479 43.0729,10.1406 42.5625,10.1406 C41.9688,10.1406 41.4948,9.9375 41.1406,9.53125 C40.7865,9.13542 40.6094,8.49479 40.6094,7.60938 M49.3594,1.98438 L49.9219,1.98438 L47.125,11.0156 L46.5625,11.0156 L49.3594,1.98438 M55.4531,4.28125 L55.4531,4.79688 C55.1615,4.61979 54.9167,4.5 54.7188,4.4375 C54.3854,4.33333 54.0677,4.28125 53.7656,4.28125 C52.901,4.28125 52.2812,4.5026 51.9062,4.94531 C51.5312,5.38802 51.3438,6.07292 51.3438,7 C51.3438,7.9375 51.5312,8.6276 51.9062,9.07031 C52.2812,9.51302 52.901,9.73438 53.7656,9.73438 C54.0573,9.73438 54.3385,9.69271 54.6094,9.60938 C54.901,9.53646 55.1823,9.42188 55.4531,9.26562 L55.4531,9.76562 C55.1823,9.90104 54.901,10 54.6094,10.0625 C54.3073,10.125 54.0104,10.1562 53.7188,10.1562 C52.8438,10.1562 52.1458,9.91667 51.625,9.4375 C51.1042,8.95833 50.8438,8.14323 50.8438,6.99219 C50.8438,5.84115 51.1042,5.02604 51.625,4.54688 C52.1458,4.07812 52.8438,3.84375 53.7188,3.84375 C54.0104,3.84375 54.3177,3.88542 54.6406,3.96875 C54.9635,4.04167 55.2344,4.14583 55.4531,4.28125 M61.7188,5.29688 C61.9062,4.80729 62.1979,4.44271 62.5938,4.20312 C62.9792,3.96354 63.4323,3.84375 63.9531,3.84375 C64.474,3.84375 64.8906,4.02604 65.2031,4.39062 C65.526,4.75521 65.6875,5.41667 65.6875,6.375 L65.6875,10 L65.2031,10 L65.2031,6.40625 C65.2031,5.57292 65.0885,5.01042 64.8594,4.71875 C64.6302,4.42708 64.3229,4.28125 63.9375,4.28125 C63.3854,4.28125 62.901,4.44792 62.4844,4.78125 C62.0156,5.15625 61.7812,5.76042 61.7812,6.59375 L61.7812,10 L61.2969,10 L61.2969,6.40625 C61.2969,5.60417 61.1849,5.04948 60.9609,4.74219 C60.737,4.4349 60.4271,4.28125 60.0312,4.28125 C59.4792,4.28125 58.9948,4.45312 58.5781,4.79688 C58.1094,5.16146 57.875,5.76042 57.875,6.59375 L57.875,10 L57.3906,10 L57.3906,3.98438 L57.875,3.98438 L57.875,5.10938 C58.0521,4.71354 58.3281,4.40104 58.7031,4.17188 C59.0677,3.95312 59.5208,3.84375 60.0625,3.84375 C60.4167,3.84375 60.7552,3.95833 61.0781,4.1875 C61.3281,4.375 61.5417,4.74479 61.7188,5.29688 M72.0938,5.35938 L72.0938,1.64062 L72.5625,1.64062 L72.5625,10 L72.0938,10 L72.0938,8.64062 C71.8646,9.16146 71.6146,9.51562 71.3438,9.70312 C70.9479,10.0052 70.5677,10.1562 70.2031,10.1562 C69.4948,10.1562 68.9036,9.86719 68.4297,9.28906 C67.9557,8.71094 67.7188,7.94792 67.7188,7 C67.7188,6.05208 67.9557,5.28906 68.4297,4.71094 C68.9036,4.13281 69.4948,3.84375 70.2031,3.84375 C70.5677,3.84375 70.9479,3.98958 71.3438,4.28125 C71.6146,4.47917 71.8646,4.83854 72.0938,5.35938 M68.8594,4.90625 C68.4427,5.32292 68.2344,6.02083 68.2344,7 C68.2344,7.97917 68.4427,8.67708 68.8594,9.09375 C69.276,9.51042 69.7135,9.71875 70.1719,9.71875 C70.6198,9.71875 71.0521,9.51042 71.4688,9.09375 C71.875,8.67708 72.0781,7.97917 72.0781,7 C72.0781,6.02083 71.875,5.32292 71.4688,4.90625 C71.0521,4.48958 70.6198,4.28125 70.1719,4.28125 C69.7135,4.28125 69.276,4.48958 68.8594,4.90625 M79.4219,12.1719 L79.4219,12.5938 L73.7031,12.5938 L73.7031,12.1719 L79.4219,12.1719 M80.0156,3.98438 L80.5312,3.98438 L82.5625,9.45312 L84.6094,3.98438 L85.125,3.98438 L82.8906,10 L82.25,10 L80.0156,3.98438 M91.75,6.75 L91.75,7.0625 L87.1875,7.0625 C87.1875,8.02083 87.375,8.69792 87.75,9.09375 C88.1667,9.52083 88.7812,9.73438 89.5938,9.73438 C89.8125,9.73438 90.099,9.6875 90.4531,9.59375 C90.8073,9.5 91.1615,9.35938 91.5156,9.17188 L91.5156,9.6875 C91.1615,9.84375 90.7995,9.96094 90.4297,10.0391 C90.0599,10.1172 89.7656,10.1562 89.5469,10.1562 C88.6198,10.1562 87.9219,9.90625 87.4531,9.40625 C86.9427,8.875 86.6875,8.09375 86.6875,7.0625 C86.6875,5.98958 86.9167,5.1875 87.375,4.65625 C87.8542,4.11458 88.5208,3.84375 89.375,3.84375 C90.1562,3.84375 90.75,4.10417 91.1562,4.625 C91.5521,5.16667 91.75,5.875 91.75,6.75 M91.25,6.64062 C91.25,5.79688 91.0573,5.18229 90.6719,4.79688 C90.3594,4.45312 89.9271,4.28125 89.375,4.28125 C88.7812,4.28125 88.2812,4.45833 87.875,4.8125 C87.5,5.14583 87.276,5.75521 87.2031,6.64062 L91.25,6.64062 M93.8281,1.64062 L94.3125,1.64062 L94.3125,10 L93.8281,10 L93.8281,1.64062"/>
</g>

<g fill="none" stroke="#000000" stroke-opacity="1" stroke-width="1" stroke-linecap="square" stroke-linejoin="bevel" transform="matrix(1.99981,0,0,1.99981,519.086,178.983)"
font-family="sans" font-size="11" font-weight="100" font-style="normal" 
>
</g>

<g fill="none" stroke="#000000" stroke-opacity="1" stroke-width="1" stroke-linecap="square" stroke-linejoin="bevel" transform="matrix(1.99981,0,0,1.99981,519.086,178.983)"
font-family="Ubuntu" font-size="11" font-weight="400" font-style="normal" 
>
</g>

<g fill="none" stroke="#000000" stroke-opacity="1" stroke-width="1" stroke-linecap="square" stroke-linejoin="bevel" transform="matrix(1.99981,0,0,1.99981,-14.9986,274.974)"
font-family="Ubuntu" font-size="11" font-weight="400" font-style="normal" 
>
</g>

<g fill="#000000" fill-opacity="1" stroke="#000000" stroke-opacity="1" stroke-width="1" stroke-linecap="square" stroke-linejoin="round" transform="matrix(1.99981,0,0,1.99981,-14.9986,274.974)"
font-family="Ubuntu" font-size="11" font-weight="400" font-style="normal" 
>
<path vector-effect="none" fill-rule="evenodd" d="M370.04,-34 L370.04,-30.451 L380.18,-34 L370.04,-37.549 L370.04,-34"/>
</g>

<g fill="none" stroke="#000000" stroke-opacity="1" stroke-width="1" stroke-linecap="square" stroke-linejoin="bevel" transform="matrix(1.99981,0,0,1.99981,-14.9986,274.974)"
font-family="Ubuntu" font-size="11" font-weight="400" font-style="normal" 
>
</g>

<g fill="none" stroke="#000000" stroke-opacity="1" stroke-width="1" stroke-linecap="square" stroke-linejoin="bevel" transform="matrix(1,0,0,1,0,0)"
font-family="Ubuntu" font-size="11" font-weight="400" font-style="normal" 
>
</g>
</g>
</svg>
